<svg width="1280" height="415" viewBox="0 0 1280 415" fill="none" xmlns="http://www.w3.org/2000/svg">
<g filter="url(#filter0_i_9_10)">
<path d="M645.331 252.384C712.341 252.384 766.663 201.259 766.663 138.192C766.663 75.1255 712.341 24 645.331 24C578.322 24 524 75.1255 524 138.192C524 201.259 578.322 252.384 645.331 252.384Z" fill="#FAFF9F"/>
</g>
<path d="M673.337 95.7767C669.715 94.0579 665.652 93.0785 661.576 93.3234C655.182 93.7081 649.241 96.5012 645.065 100.948C639.268 97.5439 632.148 96.0815 625.409 97.1741C617.872 98.3966 610.528 103.118 608.087 110.092C607.505 111.756 609.977 113.103 611.227 111.813C615.332 107.569 620.282 103.708 626.51 102.884C632.973 102.029 638.86 104.458 643.055 109.02C644.826 110.945 648.174 110.219 649.463 108.242C652.092 104.209 656.869 101.418 661.852 101.26C664.319 101.181 666.825 101.633 669.08 102.629C670.294 103.165 671.472 103.843 672.502 104.652C673.916 105.765 674.98 107.001 676.87 107.419C679.039 107.9 681.466 106.441 681.379 104.186C681.228 100.259 676.758 97.399 673.337 95.7767Z" fill="#021713"/>
<path d="M710.223 81.22C709.624 76.8662 705.086 74.6027 700.692 75.0574C697.289 75.4089 694.627 77.2293 692.39 79.4845C688.932 77.0911 684.508 76.0734 680.217 76.8829C675.205 77.8272 670.531 81.643 669.595 86.4581C669.17 88.645 672.253 90.1424 673.564 88.0338C675.269 85.2956 677.84 82.8722 681.298 82.3526C684.429 81.8812 687.97 83.2286 689.762 85.7087C690.927 87.3192 693.532 87.9738 695.091 86.3549C696.655 84.7293 698.382 82.3842 700.74 81.7296C702.593 81.215 703.485 82.0544 704.61 83.4085C706.288 85.4272 710.579 83.8032 710.223 81.22Z" fill="#021713"/>
<mask id="mask0_9_10" style="mask-type:luminance" maskUnits="userSpaceOnUse" x="0" y="35" width="1280" height="380">
<path d="M1280 35H0V414.661H1280V35Z" fill="white"/>
</mask>
<g mask="url(#mask0_9_10)">
<path fill-rule="evenodd" clip-rule="evenodd" d="M322.449 42.2233C313.021 41.1518 292.676 39.7915 285.39 43.5216C280.527 46.0139 276.252 51.8869 272.091 52.5973C268.057 53.2826 245.365 50.5702 254.989 57.1352C232.306 41.6606 235.944 75.2801 223.638 75.2801C215.681 75.2801 160.22 75.6176 165.675 83.0576C160.87 83.0576 109.198 94.802 109.617 95.3731C102.78 97.7058 95.4587 97.9695 86.8146 97.9695C72.7088 97.9695 101.317 101.233 107.72 101.857C133.624 104.38 160.692 104.447 188.479 104.447C292.362 104.447 398.253 101.857 498.221 101.857C481.762 96.2481 463.545 96.0214 447.864 88.8938C433.826 82.5068 441.581 74.2825 426.01 70.7439C403.019 65.5207 399.053 77.8782 383.259 77.8782C379.03 77.8782 372.806 77.6699 372.806 74.6318C372.806 64.4778 357.803 52.2245 346.2 48.7094C334.694 45.2195 333.851 58.63 333.851 51.9491C333.851 45.5184 328.845 46.5899 322.449 42.2233Z" fill="#76BFFF"/>
</g>
<mask id="mask1_9_10" style="mask-type:luminance" maskUnits="userSpaceOnUse" x="0" y="35" width="1280" height="380">
<path d="M1280 35H0V414.661H1280V35Z" fill="white"/>
</mask>
<g mask="url(#mask1_9_10)">
<path d="M-61.1608 332.68V200.891C-59.3604 201.08 -57.6591 201.328 -56.1543 201.667C-38.3118 205.7 -12.6748 214.567 7.40643 212.977C27.4894 211.388 58.7474 196.953 82.1725 197.776C105.593 198.607 160.277 183.386 182.591 183.41C204.897 183.428 228.351 166.577 248.445 157.755C268.539 148.936 282.869 98.9534 312.985 98.982C343.105 99.0122 337.625 132.684 361.149 133.755C384.673 134.825 407.839 78.501 433.318 78.501C456.361 78.501 502.052 124.644 522.881 140.335C543.708 156.03 561.414 141.8 585.942 147.446C610.468 153.097 634.79 189.599 659.341 181.584C683.9 173.572 707.478 168.113 724.205 171.341C740.93 174.574 760.396 183.148 780.472 183.166C800.55 183.185 830.671 182.412 852.963 191.271C875.254 200.129 898.676 202.564 914.293 202.578C929.909 202.596 976.756 204.245 1004.62 216.324C1032.48 228.406 1110.54 240.532 1127.3 230.102C1144.05 219.671 1161.96 184.329 1176.46 183.538C1190.96 182.75 1207.7 180.352 1213.29 171.519C1218.88 162.684 1239 141.007 1270.2 160.322C1275.87 163.833 1281.57 167.232 1287.11 170.45V332.677H-61.1608V332.68Z" fill="#1E757A"/>
</g>
<mask id="mask2_9_10" style="mask-type:luminance" maskUnits="userSpaceOnUse" x="0" y="35" width="1280" height="380">
<path d="M1280 35H0V414.661H1280V35Z" fill="white"/>
</mask>
<g mask="url(#mask2_9_10)">
<path d="M1330.38 395.421V263.633C1328.58 263.821 1326.88 264.07 1325.37 264.409C1307.53 268.441 1281.89 277.309 1261.81 275.718C1241.73 274.129 1210.47 259.694 1187.04 260.517C1163.63 261.349 1108.94 246.128 1086.63 246.151C1064.32 246.17 1040.87 229.318 1020.77 220.496C1000.68 211.677 927.554 110.115 904.03 111.185C892.657 111.704 871.445 149.146 849.406 165.806C825.856 183.615 834.045 141.909 776.01 205.067C758.362 224.268 727.41 222.38 702.876 228.028C678.351 233.675 640.414 229.693 615.864 221.683C591.307 213.669 567.893 218.512 551.168 221.744C534.442 224.973 508.825 245.891 488.744 245.91C468.668 245.928 438.55 245.155 416.253 254.015C393.962 262.872 370.542 265.307 354.925 265.321C339.307 265.339 292.461 266.988 264.597 279.067C236.733 291.149 158.673 303.275 141.921 292.845C125.172 282.414 107.259 247.072 92.7564 246.281C78.2543 245.493 61.5185 243.096 55.9259 234.262C50.3316 225.427 30.2134 203.75 -0.984168 223.066C-6.64898 226.576 -12.3507 229.975 -17.8929 233.193V395.42L1330.38 395.421Z" fill="#529697"/>
</g>
<mask id="mask3_9_10" style="mask-type:luminance" maskUnits="userSpaceOnUse" x="0" y="35" width="1280" height="380">
<path d="M1280 35H0V414.661H1280V35Z" fill="white"/>
</mask>
<g mask="url(#mask3_9_10)">
<path fill-rule="evenodd" clip-rule="evenodd" d="M-4.98291 414.662V304.746L0.136076 301.29C59.0548 263.991 149.65 241.017 163.243 235.641C169.98 232.906 176.85 230.845 183.974 228.532C191.473 226.047 198.851 221.499 204.825 217.945C222.001 207.445 241.328 197.535 256.084 186.957C257.221 186.129 257.728 186.455 259.773 186.042C262.059 185.627 267.019 182.826 269.437 181.581C271.468 180.591 274.02 177.45 275.666 176.295C276.682 175.467 280.505 171.824 280.505 171.824C282.669 171.333 282.149 171.911 284.194 170.994C288.003 169.184 290.543 167.288 297.667 168.356C305.045 169.436 313.692 169.261 322.086 169.261C325.267 169.261 324.251 168.606 325.776 167.45C326.418 167.036 328.45 166.861 329.464 166.535C332.138 165.543 334.168 164.387 336.709 162.98C339.128 161.661 342.818 161.409 345.37 160.341C346.64 159.752 347.522 158.182 348.926 157.691C351.599 156.699 355.034 156.121 357.454 154.965C357.827 154.803 357.066 154.223 357.454 154.137C358.215 153.887 361.77 153.887 362.412 154.137C366.474 155.632 369.402 158.444 373.345 160.341C377.168 162.15 382.634 163.153 386.831 164.8C387.847 165.213 388.354 166.119 389.236 166.534C390.385 167.036 391.789 166.947 392.924 167.449C398.646 170.087 404.245 173.065 409.966 175.376C412.52 176.367 416.074 176.204 418.615 177.196C428.666 180.75 435.656 182.648 446.724 185.134C453.595 186.704 460.584 189.43 467.455 191.326C469.487 191.828 473.054 192.318 474.833 193.059C482.852 196.613 487.812 200.092 498.103 201.083C511.082 202.489 523.285 204.639 538.429 204.639C540.834 204.639 542.626 203.974 544.524 203.809C549.241 203.319 551.394 203.896 555.47 202.894C556.874 202.566 557.89 202.491 559.158 201.988C559.533 201.826 558.65 201.161 559.158 201.083C561.191 200.581 563.355 200.92 565.267 200.168C565.641 200.092 564.88 199.426 565.267 199.35H570.093C576.83 199.35 584.208 199.928 590.957 199.35C599.979 198.522 602.907 195.294 610.419 193.059C616.767 191.248 623.638 190.508 629.867 188.6C635.468 187.03 642.339 186.615 648.192 185.134C654.034 183.726 658.618 182.483 665.356 182.483C668.79 182.483 668.537 185.134 670.315 186.954C670.703 187.532 672.105 187.282 672.599 187.859C676.543 191.663 679.349 195.874 684.936 199.352C686.594 200.42 687.864 201.162 689.775 201.99C690.416 202.329 691.419 201.663 692.195 201.99C693.718 202.655 694.346 203.898 695.883 204.64C697.272 205.218 699.318 204.881 700.841 205.468C721.439 215.051 743.185 224.799 765.453 232.083C772.952 234.471 779.821 237.197 787.454 239.18C789.859 239.682 792.532 239.595 794.832 240.01C796.985 240.349 798.894 241.34 801.061 241.755C803.226 242.332 805.888 242.159 808.306 242.66C810.605 243.238 812.128 244.808 814.414 245.386C816.834 245.888 819.372 245.636 821.792 246.214C832.979 249.19 845.063 251.502 855.996 255.133C865.915 258.361 874.695 262.417 884.105 266.626C889.451 269.024 896.068 270.344 901.281 272.83C901.402 272.993 900.893 273.572 901.281 273.648C903.059 274.563 904.836 275.065 907.256 275.468C915.785 276.624 927.091 275.883 932.945 272.83C933.201 272.667 932.692 272.165 932.945 272.002C934.215 271.174 934.349 271.259 935.365 270.181C935.619 269.931 936.514 270.431 936.635 270.181C937.517 268.033 935.752 266.713 937.905 264.805C940.323 262.582 945.671 261.089 948.838 259.518C949.105 259.354 948.465 258.776 948.838 258.613C951.003 257.533 954.064 257.118 956.216 256.05C957.62 255.221 958.381 254.152 959.785 253.324C961.563 252.409 964.116 252.409 965.893 251.591C969.955 249.771 975.677 247.285 980.516 245.387C988.134 242.247 995.139 237.701 1001.37 233.895C1013.08 226.786 1029.73 227.201 1042.83 232.99C1047.16 234.81 1053.13 235.05 1057.58 236.545C1066.11 239.358 1077.69 242.161 1086.96 243.567C1100.21 245.628 1106.22 262.375 1120.27 263.499C1127.69 264.098 1140.51 265.385 1147.71 266.04C1156.36 266.868 1166.76 278.076 1175.54 278.076L1189.09 287.312C1199.89 297.059 1244.27 308.246 1263.26 318.452L1263.49 318.573V408.406L-4.98291 414.662Z" fill="#598789"/>
</g>
<mask id="mask4_9_10" style="mask-type:luminance" maskUnits="userSpaceOnUse" x="0" y="35" width="1280" height="380">
<path d="M1280 35H0V414.661H1280V35Z" fill="white"/>
</mask>
<g mask="url(#mask4_9_10)">
<path opacity="0.06" fill-rule="evenodd" clip-rule="evenodd" d="M1008.25 314.002C1008.16 314.013 1008.04 314.002 1007.99 313.948C1003.15 311.963 997.44 310.972 992.682 308.911C990.262 307.831 987.843 306.174 985.302 305.433C984.288 305.106 982.75 305.683 981.614 305.433C981.361 305.356 978.178 303.033 976.789 300.974C975.131 300.559 972.458 300.974 970.681 300.974C968.261 300.974 966.484 300.232 965.722 300.069C960.508 298.826 947.651 303.12 952.355 295.598C953.503 293.952 954.654 292.13 956.044 291.139C956.94 290.561 958.465 290.802 958.465 289.482C958.465 288.239 956.313 288.163 954.775 288.576C949.427 289.732 943.333 289.482 937.733 289.482C935.582 289.482 923.364 292.872 922.989 292.96C919.3 293.865 915.224 292.372 911.922 293.865C907.592 295.763 907.204 294.856 902.258 295.598C901.991 295.686 897.299 297.419 896.017 296.513C895.629 296.176 896.017 293.45 896.017 292.958C896.017 290.56 896.659 287.169 894.88 285.924C893.826 285.162 894.546 281.084 892.354 278.619C890.295 276.308 885.269 275.587 885.217 275.347C884.696 273.69 885.845 272.534 886.354 270.964C901.753 275.587 910.907 282.619 929.086 285.923C929.981 286.098 930.743 286.588 931.625 286.838C937.105 287.994 940.152 285.018 944.992 285.018C950.712 285.018 955.163 284.102 962.154 284.102C970.039 284.102 970.683 288.071 974.238 292.039C976.268 294.187 978.314 294.602 980.346 296.51L1001.2 309.724C1002.09 310.226 1007.69 312.7 1008.57 313.365C1008.75 313.474 1008.54 313.758 1008.47 313.965C1008.45 313.98 1008.36 314.002 1008.25 314.002ZM1210.51 313.326C1195.5 312.247 1187.52 300.974 1172.39 300.974C1164.64 300.974 1157.51 298.411 1150.25 297.419C1146.31 296.841 1145.04 297.331 1141.86 296.513C1140.66 296.46 1121.68 284.804 1117.01 274.118C1117.6 274.424 1140.72 283.713 1149.06 283.059C1153.41 284.967 1155.17 284.554 1158.78 285.021C1158.78 283.31 1135.32 273.671 1122.06 269.123C1118.65 267.946 1115.88 267.225 1114.28 267.225C1107.88 263.497 1104.42 271.456 1107.52 277.007C1107.52 278.49 1106.89 280.888 1107.52 282.371C1107.78 282.948 1108.79 282.621 1108.79 283.199C1108.79 285.019 1091.88 284.519 1089.21 284.104C1086.92 283.864 1078.78 280.973 1078.28 279.645C1078.09 279.307 1079.4 274.706 1072.98 271.14C1073 268.448 1078.98 263.878 1077.94 261.643C1076.5 258.569 1070.94 256.301 1068.03 253.325C1064.27 253.378 1055.38 258.427 1054.99 258.492C1052.2 258.82 1045.21 258.242 1045.21 260.303C1045.21 260.553 1046.34 267.412 1042.65 267.412C1042.4 267.412 1043.04 266.67 1042.65 266.507C1042.4 266.181 1040.5 265.929 1040.37 265.601C1039.35 264.434 1040.25 264.271 1037.83 263.856C1026.57 267.902 1012.26 274.007 1009.13 272.524C1005.71 269.951 1013.8 264.402 1026.76 257.575C1027.91 256.922 1032.36 254.435 1032.99 253.192C1033.63 251.796 1033.12 251.383 1034.14 250.553C1035.18 249.833 1034.75 244.949 1031 241.449C1026.95 237.677 1019.52 235.158 1019.52 231.047C1020.28 231.047 1025.02 229.925 1031.29 231.952C1036.06 233.49 1042.65 236.706 1043.54 240.663C1050.26 243.139 1060.85 242.527 1065.94 242.527C1081.44 242.527 1081.19 246.899 1095.3 249.462C1099.23 252.122 1099.45 256.44 1106.49 260.43C1110.55 262.719 1118.92 263.297 1123.84 265.064C1132.06 268.008 1149.84 267.103 1153.15 268.455C1157.35 270.166 1162.96 277.712 1174.35 282.848C1181.18 286.816 1179.14 292.103 1184.48 295.015C1194.03 300.198 1206.23 307.055 1210.51 313.326ZM882.666 277.912C874.27 277.912 864.727 275.1 856.975 273.528C853.164 272.875 851.762 273.038 848.46 271.871C842.606 269.733 835.349 266.747 828.866 265.601C826.968 265.264 824.803 265.929 822.771 265.601C807.881 263.442 794.141 255.919 778.756 255.919C778.529 255.919 778.475 262.024 775.268 263.398C774.613 263.682 770.243 260.684 769.574 260.978C766.273 262.417 763.973 262.231 762.986 262.951C762.477 263.279 758.789 262.951 758.026 262.951C758.547 262.536 761.461 261.294 761.714 260.301C762.102 258.491 760.833 256.998 762.984 255.918C764.173 255.231 769.213 254.216 771.351 251.556C766.726 250.837 755.205 249.767 754.469 249.638C748.87 248.896 745.059 247.075 739.714 246.083C736.145 245.429 730.169 246.17 726.227 245.265C725.092 244.926 721.015 241.95 720.133 241.624C718.475 241.133 717.073 241.133 715.294 240.794C707.663 239.224 700.285 237.578 692.533 236.411L692.01 236.357C683.603 235.202 674.834 234.624 664.649 235.452C658.809 235.942 650.801 236.935 645.068 238.09C643.798 238.418 639.468 240.238 637.823 239.825C636.966 239.597 629.696 240.774 629.429 240.578C633.879 238.735 639.574 237.677 640.108 237.262C641.003 236.685 652.901 234.558 653.782 234.145C657.484 229.837 663.807 228.934 665.584 228.529C666.279 228.354 670.369 223.961 670.636 223.874C674.954 222.881 676.61 222.303 679.283 220.407C675.461 220.407 672.668 219.492 668.337 219.492C669.232 218.837 671.852 216.885 672.989 215.718C673.563 215.13 672.361 215.675 670.916 212.49C670.461 211.499 668.029 209.711 667.829 208.554C667.709 207.833 671.706 205.02 671.531 204.355C670.891 201.836 668.511 199.59 668.337 199.165C667.574 197.672 664.647 187.26 664.647 185.852L668.698 188.937L671.41 188.6C673.241 188.709 674.178 192.231 674.992 196.309C678.561 201.182 682.143 203.428 685.712 205.26C687.823 204.77 689.95 204.792 692.061 204.998C695.722 206.654 696.939 208.302 697.447 209.959L703.422 210.483C710.158 211.137 708.246 220.59 715.358 224.733C721.895 226.435 729.086 220.884 735.955 223.818L753.277 231.789C758.665 233.228 765.921 233.818 769.062 235.714C772.203 239.77 775.345 241.165 778.486 241.983L789.818 242.527C790.074 242.778 789.311 243.357 789.818 243.443C793.762 244.435 797.064 246.168 800.886 246.998C803.813 247.74 804.949 247.075 808.13 247.903C808.518 247.991 807.742 248.646 808.13 248.82C808.798 248.961 814.987 251.415 816.99 252.833C820.774 255.493 821.376 258.208 824.036 261.131C824.157 261.381 824.917 260.968 825.305 261.131C826.694 262.211 827.805 262.897 829.716 263.398C834.542 264.553 840.182 261.796 844.767 261.131C848.322 260.629 852.398 261.796 855.821 261.131C856.851 260.968 862.317 260.803 863.199 261.131C864.989 261.294 874.025 267.825 874.146 269.145C877.572 272.46 879.362 275.514 882.666 277.912ZM556.45 275.349C552.414 275.164 548.363 274.89 544.326 274.456C539.594 273.953 535.104 273.004 529.729 272.7C516.003 271.958 501.755 272.7 488.013 272.7H463.594C461.189 272.875 459.785 274.521 456.351 273.528C455.963 273.528 456.723 272.788 456.351 272.7C454.438 272.297 452.019 273.203 450.242 272.7C449.733 272.623 450.496 272.045 450.242 271.872C446.687 269.321 444.388 266.344 439.188 263.858C438.547 263.531 437.531 264.023 436.768 263.858C434.229 263.04 432.825 263.443 430.66 262.953C430.274 262.866 431.034 262.125 430.66 262.036C429.645 261.873 424.298 262.123 428.241 261.131C432.825 260.051 441.981 261.131 446.553 261.131H469.704C474.154 261.131 480.13 261.959 484.46 261.131C488.777 260.388 480.637 256.17 479.502 255.014C474.542 249.563 474.917 242.203 469.704 237.329C463.475 231.213 449.614 233.611 439.19 235.509L435.488 237.329C433.965 237.655 432.186 236.915 430.662 237.329C422.269 239.15 414.262 240.72 404.973 239.063C399.625 238.07 395.309 235.922 390.336 234.604C382.837 232.696 373.174 231.953 365.93 229.315C359.567 226.992 349.903 224.267 345.199 229.315C343.662 230.885 334.64 233.687 331.592 234.604C330.055 235.094 321.594 235.225 317.276 235.475C316.462 235.235 308.736 236.784 308.308 236.577C306.531 235.705 314.885 233.22 317.597 231.628C324.214 227.081 338.703 221.63 341.375 220.474C342.137 220.135 343.153 220.8 343.928 220.474C344.677 220.048 344.302 219.143 345.197 218.729C345.706 218.315 346.842 218.98 347.483 218.729C351.173 217.084 354.982 216.832 358.551 215.098C359.941 214.521 360.836 213.028 362.24 212.45H364.659C368.589 211.457 372.277 211.044 376.862 210.717C379.656 210.552 395.173 211.207 395.173 207.991C395.173 206.17 393.769 206.998 392.753 206.258C392.125 205.756 391.362 204.35 390.333 203.695C389.96 203.357 388.181 203.03 387.928 202.78C387.033 201.874 387.419 200.054 386.658 199.224C385 197.241 380.924 194.928 378.011 193.85C375.204 192.782 369.991 191.626 373.172 191.211C379.534 190.384 386.393 192.117 392.755 191.211C397.313 190.394 400 187.396 395.361 183.558C390.684 179.687 381.46 175.653 380.819 175.032C380.698 174.791 377.115 174.595 376.862 174.345C372.411 171.041 367.573 167.738 363.389 164.673C362.36 163.767 362.24 161.947 360.969 161.129H359.82C359.353 160.256 359.901 158.425 360.381 157.149C360.541 156.756 360.756 155.819 361.103 155.809C369.244 159.755 373.827 163.942 384.507 166.144C390.615 167.399 396.068 171.617 401.468 173.809C408.58 176.709 415.516 177.767 423.282 180.634C424.511 181.027 433.894 182.945 442.757 186.38C445.243 187.339 446.339 191.123 448.798 192.171C453.049 194.001 459.249 192.486 462.926 193.576C468.379 195.19 470.532 198.984 470.972 199.224C471.988 199.726 473.392 199.474 474.662 200.054C475.05 200.304 475.424 201.537 475.931 201.874C478.993 204.098 486.745 208.644 488.013 211.546C488.776 212.865 488.28 213.117 488.013 213.367C486.878 215.93 490.687 216.998 492.973 217.826C500.739 220.639 510.911 222.952 519.812 225.765C523.248 226.745 526.308 228.403 529.729 229.318C532.91 230.136 537.75 230.551 540.543 231.957C541.052 232.121 542.455 233.777 544.366 232.862C544.619 232.699 543.978 232.12 544.366 231.957C546.771 230.714 547.28 231.631 550.461 231.052C551.035 230.954 551.396 230.9 552.105 230.801L552.372 230.769C552.933 230.704 555.754 230.301 556.369 230.224C560.472 229.821 564.696 229.777 568.773 230.224C571.58 230.474 577.809 231.052 579.72 231.957C586.456 235.185 593.713 240.384 600.571 244.355C605.409 247.168 606.8 246.84 612.787 247.908C613.161 247.996 612.28 248.651 612.787 248.825C614.819 249.316 616.596 249.403 618.762 249.643C634.281 251.966 650.051 254.854 662.762 259.401C666.197 260.721 670.14 262.617 674.979 262.039C677.774 261.713 679.429 261.134 682.224 261.134C685.526 261.134 688.841 261.92 691.849 262.629L693.292 262.956C706.899 266.184 721.522 269.15 736.024 270.065C736.665 270.065 754.335 269.236 747.091 271.876C742.641 273.119 737.681 273.533 732.334 273.533C726.226 273.533 717.832 274.439 712.753 272.705C707.54 270.808 704.987 268.247 696.98 268.247C695.443 268.247 693.146 268.257 691.621 268.257C677.879 268.933 665.115 270.776 649.29 267.417H643.182C639.88 266.926 636.311 265.433 633.384 264.691C627.756 263.458 623.132 262.892 619.377 262.924L624.855 265.606C629.319 267.089 634.786 269.4 638.343 270.971C640.641 271.265 644.33 271.221 646.87 272.704C651.188 273.02 651.441 274.23 654.248 274.437C644.077 274.437 633.637 274.939 623.853 274.437C619.911 274.197 614.952 273.532 610.248 273.532C607.052 273.532 597.91 272.878 594.341 273.532C590.905 274.284 590.279 275.352 585.827 275.352H556.45V275.349ZM595.025 231.05C594.677 231.072 594.437 231.083 594.343 231.05C592.685 230.385 597.524 220.049 595.613 218.729C594.464 217.901 585.949 218.729 583.41 218.729C573.331 218.729 564.11 219.525 554.78 220.637L554.152 220.715C550.088 221.217 546.012 221.707 541.815 222.209C540.036 222.372 538.634 222.624 536.976 223.039C536.603 223.202 537.378 223.857 536.976 223.944H529.731C526.819 224.434 527.58 224.849 524.652 224.849C517.528 224.849 525.922 221.383 525.922 221.383C526.817 219.398 526.429 219.475 527.192 217.829C527.311 217.503 529.103 217.579 528.461 216.009C528.34 215.769 527.445 216.259 527.192 216.009C524.264 212.868 518.544 211.713 516.126 207.994C515.11 207.744 513.585 208.322 512.57 207.994C512.061 207.907 512.958 207.252 512.57 207.166C511.42 206.839 509.897 207.417 508.748 207.166C508.12 206.916 508.373 206.424 507.732 206.261H503.923C503.535 206.174 504.432 205.432 503.923 205.344C502.012 204.929 498.71 204.766 497.934 204.516C496.799 204.276 495.274 204.854 494.125 204.516C493.871 204.439 494.513 203.861 494.125 203.698H492.974C492.974 200.47 507.357 205.181 508.746 205.344C511.674 205.846 515.751 205.344 518.677 205.344C527.699 205.878 536.602 205.9 545.503 205.344C548.805 205.672 552.212 205.497 555.608 205.344H557.719C558.228 205.269 557.333 204.603 557.719 204.516H560.259C560.512 204.439 559.751 203.774 560.259 203.698C560.887 203.448 562.037 204.101 562.544 203.698C563.186 203.196 562.037 202.293 562.544 201.878C563.186 201.463 564.321 201.953 565.084 201.878C566.755 201.715 568.264 201.211 569.922 200.962C573.985 200.962 583.915 199.97 588.233 200.962C597.39 203.198 597.136 219.4 599.303 224.851C599.556 225.43 598.674 226.171 599.303 226.596C601.333 228.494 617.867 222.29 615.207 228.406C614.312 230.227 609.352 228.909 606.68 229.322C605.344 229.458 597.484 230.865 595.025 231.05ZM320.711 215.926L317.611 215.839L294.968 210.715C289.327 209.439 283.607 209.645 277.927 207.16H274.239L273.102 205.339H271.818V201.873L276.657 196.497C279.463 193.368 284.89 191.47 288.993 189.388C290.049 188.623 289.327 188.002 290.141 186.825C290.956 186.596 292.896 186.323 294.058 186.672C293.831 186.376 294.699 185.308 294.966 185.003L301.075 179.714C300.326 177.73 297.879 176.552 293.829 176.16C292.226 176.117 291.01 175.799 290.14 175.255C289.058 174.187 288.991 172.944 288.991 171.7C289.446 170.806 294.35 170.588 309.722 171.7C313.356 172.017 315.269 171.547 317.246 171.112L320.723 172.583C316.272 177.129 310.204 181.294 302.344 185.003L297.519 186.825C297.853 187.206 297.907 187.522 297.519 187.73V189.388L299.805 192.113C298.067 195.363 296.276 198.25 298.428 200.737C299.15 201.565 301.207 201.839 302.344 201.871L303.614 205.337C305.11 205.556 306.622 205.796 308.118 207.442C309.067 209.949 312.502 211.619 315.696 213.362L317.607 213.187L320.711 215.926Z" fill="url(#paint0_linear_9_10)"/>
</g>
<mask id="mask5_9_10" style="mask-type:luminance" maskUnits="userSpaceOnUse" x="0" y="35" width="1280" height="380">
<path d="M1280 35H0V414.661H1280V35Z" fill="white"/>
</mask>
<g mask="url(#mask5_9_10)">
<path d="M1286.92 517.65V288.73C1286.45 289.213 1286.04 289.675 1285.75 290.097C1285.21 287.144 1282.65 283.74 1283.33 279.981C1280.57 284.113 1277.82 290.132 1270.56 290.127C1270.85 285.477 1270.36 280.53 1268.31 276.098C1261.03 277.643 1257.24 284.23 1255.25 289.902C1256.64 286.306 1254.12 285.789 1257.53 281.731C1245.31 296.28 1241.44 282.309 1230.54 279.991C1229.15 283.711 1228.52 287.604 1228.37 291.506C1226.98 292.458 1225.45 293.464 1224.51 294.342C1224.81 294.554 1219.76 286.281 1220.79 285.94C1214.71 287.176 1209.98 293.133 1208.4 290.879C1205.32 286.499 1202.17 278.513 1202.17 278.513C1202.17 278.513 1192.79 280.257 1192.15 284.701C1191.9 280.717 1190.67 276.935 1187.22 274.725C1183.55 280.519 1182.3 286.647 1179.81 292.806C1174.18 288.155 1171.69 278.905 1163.73 277.403C1163.38 282.354 1163.53 287.43 1163.57 292.443C1162.28 289.623 1158.46 286.679 1156.89 283.869C1149.78 286.973 1149.85 293.504 1145.08 298.452C1143.81 295.372 1140.29 291.554 1139.66 288.019C1138.79 293.145 1138.8 299.377 1133.81 303.262C1132.39 300.746 1128.25 298.773 1126.8 296.648C1121.86 300.444 1118.88 305.801 1115.51 310.732C1114.75 308.455 1111.83 305.282 1111.33 302.478C1109.24 306.364 1107.54 310.67 1106.41 314.946C1104.63 312.974 1101.28 313.031 1099.69 308.722C1093.79 311.946 1090.76 318.231 1086.62 322.562C1086.09 319.487 1084.06 315.621 1085.16 311.661C1079.19 315.737 1075.01 320.982 1071.51 326.348C1073.28 323.234 1072.73 321.408 1073.1 317.836C1063.94 321.345 1063.24 329.985 1056.67 335.627C1055.39 332.683 1051.23 327.693 1050.4 325.651C1047.84 329.398 1044.91 334.288 1043.3 337.513C1042.43 335.768 1040.34 333.502 1038.67 331.195C1039.03 329.698 1039.22 328.19 1038.91 326.648C1038.2 327.182 1037.59 327.79 1036.97 328.393C1036.84 328.096 1036.69 327.797 1036.6 327.508C1036.23 328.267 1035.91 328.927 1035.58 329.618C1035.38 329.779 1035.18 329.943 1034.96 330.091C1033.93 329.055 1033.73 327.495 1033.85 326.126C1032.17 326.672 1031.26 328.647 1030.08 329.893C1029.99 327.666 1029.79 325.446 1029.62 323.352C1027.75 326.145 1025.11 327.975 1022.18 329.478C1022.91 329.473 1023.63 329.475 1024.35 329.483C1023.07 330.447 1021.82 331.42 1020.62 332.186C1020.18 331.764 1019.81 331.28 1019.46 330.776C1020.39 330.363 1021.3 329.937 1022.18 329.478C1021.03 329.488 1019.87 329.51 1018.7 329.557C1018.04 328.471 1017.39 327.376 1016.43 326.536C1015.81 327.619 1015.18 328.721 1014.53 329.814C1014.18 329.841 1013.83 329.871 1013.48 329.903C1013.15 328.566 1013.48 327.08 1012.59 326.047C1010.91 327.621 1009.11 329.095 1007.38 330.637C1006.45 330.782 1005.52 330.939 1004.59 331.112C1003.86 329.93 1003.33 328.56 1003.03 327.444C1002.52 328.882 1002.07 330.575 1001.16 331.828C1001.09 331.845 1001.01 331.861 1000.94 331.878C999.403 331.111 998.884 329.406 997.928 328.306C996.439 329.693 995.821 331.41 995.844 333.217C995.602 331.569 995.7 329.784 995.569 328.089C993.673 329.789 992.685 332.374 991.945 334.644C991.783 334.71 991.625 334.779 991.466 334.846C990.651 332.955 990.559 330.734 989.781 328.823C986.915 331.21 984.592 334.648 982.613 337.518C981.732 338.808 979.785 340.915 979.713 342.541C979.614 342.655 979.512 342.768 979.411 342.884C973.82 340.799 975.655 333.964 974.167 330.242C971.252 330.56 968.111 336.461 966.586 338.39C966.225 335.38 963.72 331.979 961.478 329.545C958.671 332.093 959.586 336.312 957.235 338.91C955.032 337.404 954.704 334.616 954.098 332.624C951.528 334.748 952.526 338.62 951.397 341.263C949.982 338.977 951.119 336.031 950.383 333.543C947.523 336.171 945.901 340.148 944.075 343.273C942.424 346.1 941.049 349.059 939.776 352.042C939.236 351.899 938.699 351.755 938.172 351.61C938.709 349.917 939.297 348.246 939.636 346.691C940.373 343.282 941.821 339.128 941.777 335.706C937.13 339.298 932.393 343.901 928.669 348.424C926.138 347.249 924.43 345.898 923.962 344.221C922.946 346.453 921.139 347.126 918.416 348.908C918.19 345.781 914.894 342.62 914.375 340.146C913.282 341.723 909.742 343.807 908.487 346.076C905.879 341.755 903.855 337.216 903.202 332.563C901.549 336.084 898.395 339.822 896.852 343.463C894.607 338.851 892.652 334.295 889.75 330.019C887.217 333.539 883.211 336.117 880.998 339.81C875.224 334.965 875.798 325.893 872.737 319.203C870.666 321.461 867.465 321.909 866.432 326.45C863.93 321.718 860.656 316.961 856.342 313.916C854.405 317.752 853.121 322.325 852.746 326.709C845.592 325.244 840.948 318.584 836.437 313.911C824.598 318.466 827.692 332.725 821.74 339.81C819.725 335.803 818.93 331.473 819.321 326.981C812.221 333.993 808.553 344.279 802.881 352.609C803.778 348.103 802.423 344.283 800.921 340.074C799.747 342.145 795.456 344.703 794.2 347.645C788.937 345.079 784.928 340.741 782.479 336.094C777.93 341.124 776.571 349.217 773.252 354.267C772.977 349.576 773.049 344.676 772.629 339.978C767.426 343.561 763.636 349.983 758.268 353.78C756.093 350.807 753.781 348.745 753.085 345.663C753.027 347.652 752.659 349.692 752.64 351.558C747.157 347.323 739.243 345.567 737.54 352.873C736.674 351.54 734.188 350.285 733.355 348.167C730.645 352.059 726.081 353.488 723.134 355.449C723.68 352.361 721.916 348.369 722.504 345.299C719.97 347.679 715.12 350.225 713.163 352.9C713.544 346.196 711.421 339.827 709.166 333.511C707.441 336.089 704.264 340.148 703.063 343.493C704.579 339.911 703.913 337.147 704.196 333.506C697.272 336.695 694.066 343.752 692.385 349.996C691.537 346.919 687.731 344.533 686.535 342.662C682.743 346.721 679.747 351.22 676.475 355.161C674.967 352.304 671.657 350.401 670.732 346.899C669.83 349.319 666.745 351.849 665.678 354.113C664.892 353.008 662.138 351.237 661.083 349.613C658.122 352.92 653.626 356.43 651.453 359.441C651.448 355.147 649.211 352.994 648.015 350.493C647.036 354.625 644.957 357.871 644.07 362.025C638.182 357.574 640.767 350.693 634.381 346.32C630.294 349.612 628.962 354.608 629.041 359.406C624.513 356.588 621.591 352.616 619.775 348.204C617.898 351.407 615.437 354.495 614.272 357.811C616.087 353.748 616.305 349.818 615.682 345.566C611.057 349.506 606.439 353.854 604.212 359.215C604.544 354.586 604.455 349.833 604.003 345.274C600.379 348.644 598.471 354.361 596.405 358.132C595.438 354.616 592.514 350.498 591.359 347.889C590.813 352.017 588.94 355.438 587.558 359.08C588.247 354.408 586.574 350.208 582.636 346.903C581.507 349.857 578.254 353.123 578.086 356.566C575.387 352.25 573.286 347.578 570.952 343.025C570.545 345.898 569.025 349.068 569.366 352.616C567.87 348.633 565.199 345.243 562.611 341.715C562.287 343.03 561.916 344.205 561.592 345.371C554.726 345.159 550.052 348.718 547.5 353.851C547.762 353.164 547.762 351.486 547.715 350.263C547.663 350.678 547.542 351.088 547.332 351.491C545.192 352.579 542.895 352.213 540.826 353.829C540.28 349.361 537.398 345.438 532.85 344.032C532.593 346.755 531.315 348.76 530.939 351.212C529.472 347.719 526.3 343.084 524.585 340.05C524.086 342.091 523.054 344.027 522.545 346.016C521.828 342.392 518.907 338.559 517.123 334.854C515.736 336.275 512.423 337.614 510.867 339.421C509.663 335.759 506.533 331.282 504.556 328.286C504.272 330.031 503.458 331.502 502.925 332.987C502 330.059 499.036 328.318 497.507 325.738C496.107 327.134 491.073 329.033 489.535 330.666C488.5 328.017 485.425 325.56 484.533 323.424C483.823 325.013 481.895 327.129 481.274 329.03C476.135 321.089 471.546 311.249 464.454 303.788C464.051 305.855 462.937 307.279 462.548 309.436C459.196 305.996 455.694 301.384 452.82 298.235C452.135 305.432 453.635 313.109 450.724 319.952C450.011 315.413 446.88 313.224 444.514 310.028C443.63 312.422 441.388 314.815 440.758 317.337C440.285 313.765 437.057 310.673 435.752 307.706C434.2 310.443 430.342 312.932 429.074 315.964C426.985 308.974 424.651 301.944 419.438 295.955C416.944 300.118 415.891 304.973 413.681 309.469C412.423 306.78 408.568 302.963 407.747 300.854C406.01 305.706 404.106 311.006 403.711 316.095C401.374 311.998 398.791 307.833 396.108 303.825C392.62 307.556 391.643 312.529 392.437 317.405C390.469 312.158 389.036 307.249 386.094 302.449C385.17 305.764 382.323 308.69 382.013 312.373C378.543 309.12 376.56 303.086 374.364 299.547C374.551 302.239 373.624 305.539 373.615 308.198C372.801 304.941 369.791 301.655 368.653 298.269C365.877 300.578 361.04 302.543 359.303 305.867C359.387 301.97 357.622 298.319 357.35 294.611C356.026 298.731 354.409 301.3 354.046 305.511C352.135 297.695 348.746 291.214 338.824 286.839C339.748 292.173 338.755 297.901 337.363 302.898C334.355 298.091 332.16 292.387 330.643 286.771C329.049 292.097 327.237 297.612 325.588 302.966C324.988 298.732 323.951 294.771 323.586 290.429C316.915 294.265 314.452 301.106 310.898 306.885C311.089 301.841 311.071 296.316 308.479 291.707C304.756 295.458 301.804 300.968 298.757 305.611C298.33 302.347 297.153 300.123 296.033 297.424C298.436 304.624 295.007 313.439 290.118 319.926C286.913 315.619 284.987 311.117 283.487 306.11C280.261 309.457 277.932 313.952 275.522 318.575C272.789 313.836 270.928 307.501 267.541 303.465C266.731 307.4 264.125 309.835 262.494 313.416C260.917 308.398 257.326 303.692 255.445 298.529C255.296 303.16 253.867 307.671 252.061 312.042C252.226 308.373 249.776 304.433 246.682 300.847C243.511 304.787 240.703 311.137 239.166 316.029C238.999 313.322 237.296 311.023 236.753 309.049C235.356 311.569 231.695 314.496 230.363 317.275C230.237 313.517 228.307 310.067 228.447 306.109C223.712 309.421 220.019 313.623 218.855 318.574C217.908 315.413 214.882 312.052 213.385 308.69C212.1 310.885 209.156 312.543 208.424 316.034C204.691 311.127 202.452 305.968 198.65 301.205C197.573 305.44 194.56 313.361 193.734 315.31C192.714 309.217 191.641 303.26 190.432 297.228C187.374 302.157 184.398 306.834 183.805 312.114C182.53 308.104 179.564 303.816 177.409 300.847C176.1 304.795 175.117 308.497 175.362 312.697C174.736 311.335 171.466 303.71 170.315 299.831C168.48 306.345 163.26 312.309 160.717 318.642C159.99 314.084 159.381 309.264 157.419 305.062C154.566 311.731 153.027 318.071 150.301 324.237C146.432 319.252 142.944 313.814 138.522 309.019C138.658 313.942 138.649 318.873 138.73 323.798C136.113 320.1 133.621 315.608 132.019 311.695C128.391 317.65 125.964 324.616 127.048 331.641C124.73 327.471 123.344 322.354 120.286 318.196C117.359 323.825 113.357 329.502 113.231 335.63C111.66 331.735 108.616 327.246 105.596 324.369C105.806 330.152 104.38 335.259 103.678 340.788C101.335 336.656 99.9261 331.944 98.5808 327.344C96.6629 330.42 92.2845 336.524 92.0007 337.523C91.0266 333.711 89.1456 330.654 88.2001 326.979C87.2747 329.626 85.3971 332.501 85.2258 336.216C84.7723 334.097 79.0571 327.172 75.5958 324.364C75.7083 328 74.7594 331.89 75.3035 335.63C72.8263 330.766 71.4928 325.328 67.2908 321.857C64.5651 325.837 63.5876 330.768 63.6162 335.63C61.1424 331.274 58.5963 326.474 55.6539 323.061C53.2472 327.097 51.8314 331.473 51.4804 335.921C49.4819 331.43 45.7955 324.739 43.4661 319.437C43.5316 326.225 43.7616 333.155 43.1285 339.846C39.6957 334.881 37.9776 327.439 32.2372 323.162C31.075 324.858 29.2343 326.245 28.1175 328.088C23.9676 324.282 22.8558 317.153 15.4174 316.661C14.7709 318.417 13.8673 319.758 13.0897 321.484C10.374 318.52 5.82607 314.86 2.10271 312.675C0.700366 314.217 -2.18158 315.292 -3.23628 316.264C-6.60192 312.862 -10.6175 309.711 -14.9068 307.126C-15.592 307.872 -16.4788 308.692 -17.3387 309.59V517.648H1286.92V517.65ZM565.695 347.978C565.512 351.096 564.971 355.083 564.279 355.816C564.753 352.947 563.762 350.322 562.959 347.645C563.762 347.914 564.625 348.107 565.695 347.978ZM561.197 347.01C560.92 348.334 560.754 349.699 560.935 351.31C560.907 349.828 560.519 348.177 560.495 346.788C560.734 346.844 560.967 346.926 561.197 347.01Z" fill="#336D70"/>
</g>
<mask id="mask6_9_10" style="mask-type:luminance" maskUnits="userSpaceOnUse" x="0" y="35" width="1280" height="380">
<path d="M1280 35H0V414.661H1280V35Z" fill="white"/>
</mask>
<g mask="url(#mask6_9_10)">
<path fill-rule="evenodd" clip-rule="evenodd" d="M-4.98291 478.974V368.102L25.3363 368.026L26.7269 364.916C29.9162 357.069 32.3649 350.076 39.7142 342.809C40.1995 342.325 39.1952 340.399 39.7142 339.979C41.4121 338.57 49.6885 335.245 48.318 329.572C48.0879 328.656 38.2463 329.572 37.4184 329.572C39.6907 325.818 41.622 323.782 43.7264 318.218C44.7324 315.55 43.3972 312.678 44.8751 310.654C45.4159 309.913 53.0944 310.029 49.4533 304.037C49.2871 303.755 49.057 303.701 48.8151 303.735L48.7043 303.778V303.82C48.7043 304.056 48.7043 304.22 48.6942 304.271C48.2727 306.35 48.2626 308.545 45.4394 308.545C41.1115 308.545 38.7502 307.619 35.2888 306.403C36.6475 308.793 37.0522 313.731 34.8807 316.013C32.8838 318.113 30.4016 315.335 29.5954 317.446C28.9572 319.134 27.7212 321.804 25.1281 320.286C20.3584 317.51 20.9126 314.473 25.5345 309.609C26.3877 308.718 28.791 309.922 28.791 309.255C28.791 306.491 28.6146 304.855 30.4117 302.497C31.5604 300.99 34.8941 299.356 34.4726 297.516C34.0426 295.609 34.6708 294.113 36.2511 293.221L36.9531 292.963L37.1547 292.457C39.5563 287.528 46.1683 285.795 48.4171 280.016L48.4742 279.865L47.4447 280.199C46.044 280.77 45.0297 281.479 44.9306 282.589C44.6434 285.934 40.5186 287.236 39.0726 284.05C37.9927 285.934 37.7694 287.58 34.8807 287.723C34.1518 287.765 28.8464 287.033 29.2965 286.257C30.9407 283.373 34.9126 281.9 38.51 281.114C39.2506 280.953 38.8308 277.293 41.0258 276.711C42.052 276.444 45.0095 277.443 45.2161 276.711C45.9685 274.044 47.0937 272.89 49.3862 272.408H49.4433L49.4533 272.321C49.5642 271.751 49.7405 271.277 50.0294 270.933C52.3874 268.155 55.2794 270.869 56.3391 266.211C56.5356 265.316 56.7691 264.392 56.9891 263.433L57.1318 262.778L54.4296 263.745C52.9164 264.318 45.8257 271.494 49.1242 263.994C49.2434 263.713 49.5423 263.532 49.6868 263.253C50.6441 261.391 52.9164 261.982 53.5915 260.81C54.0315 260.044 55.2038 258.656 56.5155 257.451L58.3024 256.052L58.3477 255.03C58.3797 251.672 57.2561 249.196 53.4723 249.196C47.139 249.196 53.6805 259.108 47.5992 257.805L47.391 257.753L47.181 259.043C46.9174 259.624 46.4757 260.01 45.7703 260.077C43.629 260.291 42.7909 258.989 41.3013 258.117C42.3257 259.914 43.33 261.313 42.9807 263.743C42.6801 265.866 39.4589 262.732 39.0726 263.743C37.6703 267.447 43.718 271.086 36.5568 271.086C34.7363 271.086 35.1561 267.695 35.1561 266.436C35.1561 264.66 33.1912 264.885 32.0894 264.229C29.9028 262.961 31.7586 255.244 34.041 254.446H35.7187C36.933 253.739 34.748 247.065 37.724 245.815L38.0683 245.772L38.3421 245.481C39.7343 244.084 41.7396 242.512 43.8238 240.93L46.2204 239.144L44.3444 239.66C41.0006 240.596 37.7139 241.563 34.041 242.94C31.5688 243.876 33.302 240.239 33.4783 239.766C34.8236 236.236 40.8596 239.842 42.4248 237.559C44.158 235.03 46.7712 235.094 50.2393 234.62C50.9447 234.524 51.6601 234.319 52.3689 234.051L52.6661 233.911L52.7552 233.836C55.2374 231.436 56.6465 229.306 58.0287 226.582C58.8465 224.946 58.5241 223.225 57.7062 221.503L57.4996 221.137L57.2225 221.653C56.109 222.634 52.4159 220.761 51.6417 220.19C50.1873 219.125 50.2276 235.559 44.0959 224.839C43.6559 225.625 37.9491 236.15 37.9491 228.755C37.9491 227.11 37.3764 224.548 38.7871 223.611C40.0988 222.751 43.2125 222.696 44.0959 221.406C45.8291 218.887 44.9238 216.917 48.0124 215.293C49.1141 214.712 49.3139 215.81 50.241 215.54C51.6618 215.122 51.3746 213.592 52.1472 212.634L52.1589 212.622L52.0834 212.268C51.8936 211.062 52.5234 210.083 54.6177 209.47C58.5241 208.308 59.5301 206.748 59.7182 205.208L59.7383 204.702L59.5301 204.692C59.0111 204.712 58.5023 204.81 57.7868 205.013C57.1671 205.198 53.6486 206.875 53.3178 206.487C51.7408 204.658 55.093 204.679 55.5447 204.282C56.5373 203.411 57.5534 200.838 58.9775 198.814L59.8257 197.781C58.9104 196.985 58.336 196.048 58.0169 195.039L57.7969 194.059L56.6582 194.253C55.8319 194.619 56.7573 195.878 56.1057 196.449C55.6875 196.826 53.0826 196.276 52.4764 196.449C50.414 197.051 54.9149 203.725 50.2376 204.035C48.3063 204.165 42.7103 202.541 42.1393 204.531C41.8303 205.607 41.973 209.418 40.1861 209.418C35.0554 209.418 41.1787 204.736 39.909 204.035C39.0508 203.574 36.6777 203.357 36.5568 202.573C35.7087 197.365 44.1379 198.033 44.3814 197.192C44.6568 196.213 46.741 194.523 48.0107 194.738C48.837 194.887 49.0452 191.046 51.0757 190.336C52.1018 189.982 53.1179 190.939 53.8686 191.07C54.883 191.251 55.8017 190.702 56.8782 190.292L57.938 190.057L58.2251 188.593C58.5678 187.204 58.9759 185.912 59.2043 184.881C55.444 185.775 54.3271 182.706 54.7151 179.037L54.747 178.748L54.5488 178.724C54.307 178.81 54.1525 179.059 54.1525 179.564C54.1525 180.35 54.5051 182.105 53.5882 182.503C52.4277 183.009 50.2796 181.62 50.7986 182.75C51.0942 183.418 51.2839 185.679 49.9589 185.442C48.9226 185.259 47.6311 183.355 46.8804 183.484C44.1093 183.979 45.8224 186.638 44.9272 187.154H42.4214C41.8353 187.357 39.741 189.251 39.3447 189.607C40.1172 188.919 40.0383 186.54 40.4598 185.442C41.8622 181.783 45.5906 178.35 49.9572 178.35C47.962 176.595 53.0239 171.99 55.2643 172.473L56.6229 172.85L56.7976 172.515C58.032 170.33 60.6923 171.677 61.663 170.062C64.0243 166.177 63.0855 148.655 65.3276 144.211C66.3067 142.285 67.8619 158.299 66.9264 162.691C66.1186 166.456 70.2702 167.608 70.2702 173.841C70.2702 178.674 70.3004 180.965 70.4365 182.762L70.4583 182.978L72.8616 183.235C75.2464 183.516 76.4372 185.691 77.6078 185.691C79.6382 185.691 83.9964 185.57 85.1519 186.905C85.6137 187.454 86.9808 192.439 87.1051 193.03C87.9986 197.756 76.7328 189.879 78.167 188.63C75.4211 189.426 73.3906 187.81 71.6793 187.046L70.9622 186.875L71.0864 187.682C71.1402 187.993 71.1855 188.317 71.2393 188.672C71.6255 191.167 74.2186 193.774 76.3364 196.248L77.4079 197.549L77.6094 197.517C78.9329 197.163 80.1219 195.818 81.798 196.7C84.2937 198.013 87.0077 201.122 82.6377 202.081C84.6229 202.081 86.4871 201.778 87.6593 203.06C89.1591 204.707 87.1975 206.654 88.4957 207.225C89.1927 207.527 93.9455 209.688 90.7378 210.154C83.2457 211.252 82.1541 206.278 79.8045 203.223L78.5113 201.909L78.3047 202.136C76.5531 203.827 72.5778 205.633 72.425 207.021C74.091 206.978 75.2498 207.891 76.1097 209.237L76.3515 209.646L76.9494 209.722C78.0864 210.023 78.8455 210.916 80.1253 212.607H79.8515C81.8921 212.607 86.7692 214.92 85.9849 216.277C87.9465 216.277 87.2747 218.192 86.8229 218.968C84.9587 222.229 93.2116 217.883 92.1317 221.658C91.2483 224.79 87.5048 223.692 85.7095 226.06C83.4892 228.979 84.9017 231.076 83.4808 226.06C81.8148 220.259 82.3858 224.49 78.7246 222.886C78.5046 222.788 78.3266 222.597 78.2073 222.326L78.073 221.819L77.6212 222.207C76.3297 223.198 74.1246 224.189 70.6699 225.771C70.5927 225.9 70.5372 226.038 70.4701 226.167L70.4482 226.255L71.4626 227.041C73.6694 228.278 75.9871 226.503 77.6111 228.268C78.1821 228.905 80.0581 232.391 79.2839 233.402C78.6457 234.24 76.5934 232.768 76.2188 232.435C75.5655 231.864 74.6385 231.337 73.6241 230.787L71.1099 229.367L71.4509 229.743C73.0951 231.357 75.9417 232.758 77.1459 234.963L77.5087 235.834L79.8263 235.695C81.9895 235.555 84.1543 235.478 86.2704 235.609C89.0415 235.791 91.1156 238.127 92.4155 240.021C93.0554 240.957 95.0859 241.323 95.7694 242.947C96.9299 245.758 95.4822 249.802 94.9314 252.74C93.9606 257.842 91.4784 254.216 90.4623 251.761C90.1096 250.912 90.0895 244.745 89.3371 245.4C88.3009 246.304 86.9657 246.346 85.7834 245.896L85.7397 245.864L85.7632 246.242C85.8069 248.007 85.6859 249.965 86.1579 252.031C86.6886 254.401 86.126 255.852 85.4861 257.165L85.3215 257.509L86.4165 258.777C86.7222 259.285 86.9657 259.824 87.1101 260.327C87.4427 261.5 90.4623 259.53 92.4172 259.348C95.2857 259.068 98.0535 262.628 96.0448 264.978C98.5288 264.978 99.8421 268.518 97.7209 269.131C95.3747 269.821 95.3176 266.928 94.0916 266.928C92.3164 266.928 89.8695 266.498 91.5758 263.503C90.6588 264.311 88.8618 265.656 87.3839 265.215C86.5559 264.978 85.7716 264.526 85.0981 263.953L84.7035 263.49L84.7908 264.461C84.8798 266.913 84.1274 269.25 80.478 273.37L79.9472 273.951L81.5914 275.521C82.4177 276.793 82.8477 278.395 83.6202 279.72C84.5825 281.42 90.0441 276.114 92.1485 277.945C93.4282 279.075 93.6164 280.872 93.7692 282.574C94.2999 288.641 89.7116 292.128 89.7116 298.231C86.8649 294.496 85.2392 291.105 85.2392 285.768C84.4818 287.447 84.2147 291.354 82.8023 292.182C81.5981 292.882 80.2193 290.739 79.1277 288.285L78.0797 285.583L77.8597 286.618C77.46 288.846 77.4197 291.622 77.7488 294.432L77.9907 296.068L81.0574 296.983C83.9376 297.996 86.6298 299.353 89.0012 300.912L91.4734 302.761L91.7135 302.171C91.9251 301.805 92.1367 301.503 92.2896 301.352C94.31 299.23 95.0473 295.895 97.0341 293.376C98.8563 291.097 101.315 292.17 102.109 288.07C102.617 285.38 103.708 282.043 104.635 279.451C99.8908 280.16 102.198 276.695 104.007 274.801C105.309 273.436 104.35 272.714 105.586 271.153C106.127 270.475 106.577 271.529 107.176 272.154C108.177 273.207 108.752 273.939 108.752 276.124C108.752 279.514 110.814 278.793 111.289 280.783C112.206 284.638 114.18 287.919 115.404 290.727C116.682 293.71 113.276 293.923 114.764 297.368C115.822 299.812 117.104 298.261 118.568 299.35C119.762 300.252 119 301.553 119.519 302.996C120.105 304.665 118.249 305.03 118.568 306.321C118.746 307.077 120.491 307.861 121.714 308.765L121.813 308.904L122.013 300.757C122.013 299.217 124.957 299.875 125.943 299.251C127.473 298.271 127.958 296.765 128.631 295.386C128.742 295.161 128.986 295.032 129.305 294.978H129.348L129.338 294.871C129.458 292.157 136.642 290.931 137.213 288.51C137.667 286.616 135.935 285.659 135.228 284.097L135.062 283.655L134.985 283.581C134.687 283.161 134.442 282.666 134.268 282.063C132.823 284.602 134.367 292.321 128.144 289.587C128.144 290.942 124.767 299.131 122.505 295.819C120.3 292.6 122.627 285.11 125.197 283.356C125.939 282.849 127.639 283.291 127.405 282.493C127.063 281.299 126.013 279.609 127.405 278.632C128.519 277.844 130.328 277.319 131.332 278.199C131.332 274.358 133.354 273.293 136.572 272.787L137.744 272.658L137.514 272.477C136.165 271.701 131.068 271.613 132.77 267.697C134.357 264.026 135.888 263.09 137.358 262.272L137.744 262.047L135.426 262.437C134.311 262.512 133.166 262.467 132.061 262.308C131.854 262.274 129.658 269.282 128.885 270.251C128.277 271.014 126.181 270.077 126.181 272.403C123.158 264.439 130.716 255.649 136.972 251.997C137.025 251.967 137.128 250.167 137.213 250.059C138.46 248.533 141.189 247.768 143.58 247.359L143.834 247.315L144.079 246.41C144.254 245.861 144.442 245.333 144.675 244.808C145.522 242.893 143.229 239.858 141.595 237.005L141.55 236.918L141.397 237.164C140.767 237.68 139.951 237.992 138.826 237.992C137.324 237.992 140.228 239.704 140.7 240.952C141.175 242.201 140.955 243.686 140.7 244.567C139.917 247.345 135.87 244.277 134.701 243.254C137.237 249.906 125.266 247.56 129.071 245.882C123.447 240.987 136.199 236.682 136.95 234.054C137.202 233.194 138.859 230.233 139.578 230.106L141.496 229.975L142.349 229.232L143.086 228.629L142.932 228.621C140.104 227.974 137.049 225.616 136.201 227.479C135.342 229.362 134.503 232.828 132.449 233.722C131.666 234.066 130.939 234.024 130.573 233.387C128.468 229.698 134.624 222.55 138.075 222.216C140.858 221.947 142.489 221.226 144.254 220.279L145.844 219.419L145.987 218.685C146.407 217.028 147.156 215.909 148.216 214.735L148.634 214.284L148.422 213.509C147.829 210.56 148.899 210.377 148.204 206.761C147.685 204.029 150.389 204.791 150.829 202.821C151.126 201.531 148.844 197.645 150.829 198.216C152.208 198.626 152.849 201.046 152.328 202.166C151.489 204.017 153.927 203.941 154.952 205.448C157.778 209.581 152.328 208.009 152.328 210.385L152.451 211.926L152.792 212.399C154.755 215.315 153.125 216.855 155.728 219.577C157.526 221.472 159.567 224.097 160.183 226.196L160.284 226.594L160.496 226.777C162.679 228.781 165.635 232.48 165.843 233.718C166.174 235.784 165.878 241.637 162.833 238.98C161.861 238.13 161.928 236.249 161.718 234.709C161.408 232.556 157.814 233.374 157.217 230.759L156.897 229.682H156.841C156.136 229.694 155.321 229.629 154.371 229.478C155.86 233.644 157.54 238.681 158.752 243.36L158.971 244.265L161.72 245.224C164.412 246.126 169.189 247.095 169.971 249.831C170.401 251.369 168.305 252.649 169.598 253.769C169.971 254.113 176.417 261.001 171.845 261.001C168.359 261.001 167.919 257.922 166.973 255.415C166.93 255.306 163.804 257.578 162.469 258.042C161.026 258.547 162.096 252.132 162.096 250.486C161.557 250.959 161.047 251.238 160.583 251.378L159.967 251.368L159.923 251.678C159.184 255.748 155.123 254.454 158.267 258.416C162.538 263.775 156.215 260.257 160.507 264.766C160.993 265.272 161.797 266.444 162.35 267.757L162.538 268.338L163.176 269.049C163.927 269.964 164.612 270.814 165.175 270.89C168.782 271.417 170.327 273.839 170.327 277.12C170.327 281.588 171.175 279.272 175.468 281.413C178.093 282.726 179.143 283.996 179.638 286.567L181.207 287.377L182.663 286.633C183.743 286.018 184.685 285.148 185.135 282.792C185.718 279.692 186.976 275.849 188.046 272.858C182.586 273.688 185.234 269.694 187.318 267.519C188.818 265.949 187.713 265.109 189.141 263.31C189.769 262.536 190.274 263.74 190.959 264.464C192.128 265.68 192.782 266.53 192.782 269.049C192.782 272.944 195.153 272.104 195.706 274.388C196.753 278.832 199.036 282.619 200.438 285.849C201.928 289.283 197.99 289.518 199.709 293.48C200.922 296.3 202.403 294.523 204.078 295.772C205.458 296.815 204.578 298.302 205.173 299.978C205.856 301.896 203.727 302.316 204.078 303.789C204.499 305.532 212.114 307.416 207.72 310.29C206.011 311.41 202.978 311.334 201.165 312.194C199.214 313.13 202.845 315.175 204.807 317.919C206.219 319.9 207.225 323.366 208.81 324.797C213.204 328.733 219.105 331.672 209.539 331.672C212.255 331.672 215.575 335.483 211.372 335.483C208.019 335.483 204.763 335.503 201.894 336.246C205.734 336.246 221.798 339.366 214.65 343.123C215.553 344.08 219.25 346.631 220.84 347.32C221.302 347.525 224.444 347.925 224.48 348.084C224.732 349.139 222.914 349.332 222.659 350.378C222.484 351.119 226.851 353.638 227.39 355.339C220.341 355.339 214.981 353.437 207.356 353.437C214.395 353.437 216.868 364.511 222.659 364.511C221.865 365.337 221.658 366.177 221.821 366.983L222.251 367.705L228.596 367.693L235.405 366.533L237.455 364.4L238.681 363.841L238.065 363.324C237.841 363.119 237.635 362.905 237.445 362.667C235.46 360.161 225.407 364.261 228.055 360.924C232.899 354.832 234.311 349.764 240.896 344.619L241.195 344.404L238.658 345.545C236.817 346.579 235.955 349.109 233.77 349.581C232.843 349.784 232.269 349.386 231.753 349.839C230.704 348.914 230.195 348.074 230.605 346.309C230.393 344.619 229.864 342.963 229.746 341.26C229.29 334.932 234.699 336.666 237.798 332.694C238.658 331.585 239.454 329.496 240.68 328.658C242.037 327.734 244.418 328.411 246.383 328.433L247.342 328.283L247.938 327.358C248.909 325.722 247.628 323.967 249.04 322.731C249.559 322.268 256.962 322.343 253.455 318.674C252.804 317.995 251.292 319.414 250.696 318.674C250.518 318.459 250.476 318.178 250.5 317.887L250.52 317.802L249.925 317.941C249.515 318.081 249.032 318.284 248.445 318.576C246.175 319.716 245.668 322.397 243.261 322.859C239.2 323.656 242.776 322.021 239.523 320.588C236.496 319.263 233.75 319.587 230.321 320.093L229.226 320.34L229.459 321.352C228.52 321.083 228.222 320.694 229.073 320.373L229.226 320.34L229.162 320.029C228.907 316.875 231.433 313.173 232.623 310.515C234.303 306.748 243.426 299.807 247.584 303.456C247.843 303.683 249.584 302.359 249.881 302.196C250.501 301.862 251.149 301.444 251.813 301.002L253.346 299.978L253.457 299.271C253.566 298.915 253.744 298.624 254.018 298.418C256.279 296.718 259.071 298.376 260.086 295.524C260.968 293.037 256.279 291.24 255.926 289.098C255.859 288.69 256.102 288.238 256.467 287.785L256.588 287.657L255.639 287.064C255.639 293.211 249.305 297.601 249.305 288.336C248.444 290.606 248.158 293.243 245.567 294.383C244.838 294.698 245.145 293.189 244.418 292.867C243.348 292.403 243.812 297.139 241.251 295.643C239.687 294.728 239.852 293.255 240.5 291.834L240.93 291.093L240.764 291.179C238.339 292.039 240.312 284.999 241.306 283.946C242.63 282.57 243.985 281.665 245.332 280.845L245.742 280.609L246.457 279.307C246.81 278.889 247.263 278.576 247.869 278.501L249.116 278.447L249.403 278.232C250.085 277.715 250.75 277.102 251.41 276.37L251.872 275.822L251.862 274.853C251.862 273.604 252.127 273.12 253.838 272.992L254.199 272.98L254.643 272.421L254.189 271.828C253.785 270.762 254.666 269.89 255.922 269.245L257.19 268.782L257.688 267.962C258.66 266.155 259.221 264.368 258.813 262.937C258.171 260.699 250.285 261.355 250.782 258.719C251.154 256.728 255.304 257.686 257.523 255.899C260.559 253.489 261.903 248.365 262.842 245.751C254.567 246.988 258.593 240.95 261.737 237.646C263.446 235.861 262.931 234.711 263.482 233.085L263.802 232.514L263.646 232.406C263.149 232.257 262.333 232.222 262.83 231.362C263.646 229.919 264.946 223.193 266.57 223.547C266.936 223.623 267.119 226.077 267.146 226.312C267.309 228.131 265.998 228.487 265.998 229.338C265.998 229.79 267.435 230.091 267.435 230.606C267.435 230.984 267.365 231.521 267.235 232.114L267.049 232.749L267.267 233.016C269.022 234.857 270.025 236.15 270.025 239.959C270.025 245.867 273.622 244.608 274.44 248.062C274.561 248.536 272.499 253.692 273.58 254.777C275.542 256.725 280.926 255.111 279.359 257.587L279.294 257.672L280.669 257.899C284.586 258.556 289.841 259.666 287.856 263.117C290.281 264.185 289.52 265.196 287.856 266.649C287.147 267.27 285.404 262.966 284.698 263.117C284.312 263.204 283.486 264.615 282.681 264.884C279.583 265.907 280.671 262.182 279.225 262.366C277.883 262.538 276.195 264.152 274.625 263.117L273.545 262.01L273.181 262.215C272 262.904 271.182 263.421 271.338 263.775C272.961 267.704 289.159 268.5 285.461 269.405C277.441 271.375 277.913 270.999 280.518 277.003C282.372 281.274 284.601 278.573 287.149 280.478C289.246 282.038 287.901 284.319 288.805 286.838C289.842 289.743 286.608 290.38 287.149 292.627C287.701 294.941 296.604 297.407 294.364 300.905L294.165 301.14L294.187 301.182C295.591 303.024 297.786 303.295 296.78 306.22C296.419 307.297 295.116 308.299 296.208 309.255C297.907 310.74 297.047 311.289 295.909 313.034C294.982 314.465 291.263 309.361 290.449 308.491C289.51 307.492 287.757 303.906 287.281 305.972C287.018 307.137 285.296 307.319 282.989 307.231L282.107 307.179L282.384 307.641C283.544 309.255 286.388 311.452 288.252 314.045C288.783 314.797 289.276 315.692 289.762 316.64L290.889 318.964L291.802 318.254C294.619 316.789 299.572 318.608 300.52 321.094C302.133 319.213 305.01 319.372 307.138 321.094C310.25 323.635 312.28 328.391 316.341 330.176C315.439 331.76 320.865 333.644 315.483 335.214C314.566 335.485 313.847 335.688 312.888 335.722C309.657 335.849 307.893 334.988 305.409 333.202C304.306 332.395 303.103 330.426 303.103 331.686V332.482L303.147 332.578C303.211 332.783 303.236 332.977 303.201 333.159L303.09 333.375L303.068 335.893C302.937 337.238 302.573 338.488 301.668 339.497C300.279 341.059 298.337 341.553 296.164 341.393L292.963 340.747L290.748 340.822C288.329 340.973 286 341.262 283.828 341.833C289.654 341.833 314.015 346.558 303.159 352.251C304.538 353.695 310.14 357.558 312.549 358.611C313.244 358.915 318.009 359.516 318.074 359.775C318.264 360.571 317.669 361.043 316.972 361.508L316.564 361.938L322.689 362.304L323.032 362.348L324.255 361.962C326.824 361.424 329.251 361.112 330.467 361.112C329.043 360.734 327.519 360.541 325.921 360.443L324.451 360.39L322.288 360.821C320.832 360.927 319.577 360.605 318.729 359.562C318.175 358.893 318 358.055 317.967 357.16L318.076 355.492L318.022 355.353C318.002 355.234 318.022 355.096 318.076 354.965L318.111 354.901L318.146 354.372C318.212 353.532 317.33 354.846 316.548 355.373C314.814 356.567 313.6 357.138 311.459 357.052C310.817 357.017 310.355 356.891 309.759 356.718C306.251 355.665 309.949 354.416 309.428 353.361C312.209 352.177 313.798 349.025 315.982 347.333C317.481 346.181 319.403 346.086 320.383 347.333C321.131 345.676 324.508 344.472 326.319 345.449L326.881 345.913L327.743 344.374C328.119 343.738 328.493 343.147 328.88 342.651C330.237 340.918 332.235 339.467 333.082 338.389L333.293 338.086L332.697 338.12C331.164 338.174 330.025 338.054 329.906 337.28C329.696 335.913 328.361 338.291 327.687 338.958C327.103 339.539 324.379 342.92 323.835 341.971C323.163 340.821 322.62 340.454 323.825 339.465C324.599 338.83 323.779 338.162 323.593 337.453C323.062 335.505 324.533 335.322 325.558 334.106L325.568 334.072L325.449 333.911C324.135 331.587 330.168 329.951 330.653 328.423C331.118 326.926 328.999 326.495 329.827 324.57C330.554 322.891 329.773 321.386 331.241 320.34C333.026 319.083 334.373 320.879 335.809 318.039C337.84 314.045 338.137 314.293 332.895 312.992C330.48 312.387 341.281 311.862 342.549 309.245C342.671 309.02 342.153 308.664 341.4 308.211L341.17 308.071L340.401 308.815C339.306 309.505 338.268 308.429 337.374 308.31C336.426 308.19 336.97 310.666 334.958 309.989C334.439 309.804 333.955 308.869 333.7 308.815C333.25 308.709 331.871 311.569 331.439 311.16C330.403 310.192 329.94 309.514 331.606 308.815C330.457 306.511 334 305.78 336.639 305.35L337.564 305.201L337.521 305.135C336.594 303.488 340.102 304.566 341.504 303.273C342.273 302.552 341.15 299.118 341.249 298.807C341.968 296.515 344.295 297.353 344.581 293.426C344.769 290.899 345.498 290.037 346.756 288.809C347.493 288.087 348.103 286.873 348.664 287.659C349.975 289.466 348.808 290.306 350.195 291.888C352.127 294.083 354.508 298.095 349.06 297.267C349.567 299.01 350.219 302.411 352.105 304.015C353.507 305.201 356.297 304.564 356.453 305.888C356.665 307.643 351.445 307.201 350.914 308.687C350.572 309.645 350.861 310.829 351.418 312.023L351.705 312.572L352.532 312.874C353.339 313.304 353.878 313.885 353.549 314.596L353.217 314.994L353.48 315.36L353.724 315.37C354.859 315.456 355.004 315.78 354.947 316.608L354.893 317.254L355.178 317.619C355.576 318.104 355.996 318.504 356.416 318.858L356.603 318.996L357.429 319.03C357.829 319.083 358.114 319.288 358.322 319.569L358.742 320.429L358.996 320.59C359.856 321.137 360.707 321.73 361.523 322.657C362.13 323.358 363.102 328.026 361.533 327.455L361.423 327.392L361.678 327.899C362.042 328.833 362.073 329.813 360.993 330.416C359.229 331.417 359.76 328.265 359.028 328.577C358.532 328.791 358.655 329.791 358.191 329.575C356.525 328.822 356.458 327.069 355.996 325.563C355.544 331.718 351.549 328.801 351.848 324.723L351.196 325.119L351.262 325.207C351.485 325.495 351.628 325.796 351.563 326.077C351.232 327.497 348.019 328.691 348.484 330.337C349.025 332.232 350.955 331.133 352.377 332.265C352.555 332.405 352.654 332.598 352.708 332.825L352.752 333.298L353.712 333.977C354.142 334.276 354.549 334.546 354.935 334.771C355.131 334.879 356.226 335.76 356.403 335.611C359.345 333.181 365.072 337.796 366.002 340.305C366.674 342.068 368.176 344.524 367.843 346.621L367.788 346.825L367.887 346.848C368.428 347.061 368.216 347.32 367.578 347.503L367.788 346.825L367.071 346.663C364.822 346.329 363.01 346.114 360.925 346.996C358.697 347.943 360.991 349.03 358.332 348.502C356.765 348.192 356.557 346.416 355.099 345.661C354.725 345.457 354.404 345.328 354.151 345.232L353.764 345.135L353.774 345.199C353.764 345.394 353.732 345.575 353.598 345.728H351.766C349.262 348.16 354.184 348.118 354.502 348.418C355.387 349.235 354.448 350.409 355.012 351.485L355.363 352.108L355.993 352.206C357.295 352.194 358.903 351.742 359.775 352.355C360.549 352.916 360.969 354.303 361.486 355.035C363.351 357.674 367.035 356.523 366.431 360.73C366.263 361.861 365.833 362.957 365.603 364.078C365.786 365.26 365.415 365.809 364.674 366.424C364.355 366.132 363.947 366.392 363.351 366.261C361.918 365.94 361.465 364.261 360.296 363.584L358.663 362.818L358.85 362.957L362.106 366.864L377.178 367.779C382.362 368.016 387.328 368.145 392.172 368.219L394.95 368.233L397.267 364.713C398.47 363.174 400.589 362.032 399.529 361.505C398.547 361.019 396.846 361.065 395.932 360.438C393.603 358.836 397.941 357.781 398.238 356.812C398.492 355.973 397.323 355.748 397.778 354.671C398.173 353.734 397.743 352.908 398.56 352.325C399.55 351.614 400.302 352.617 401.095 351.045C402.21 348.83 400.025 348.687 400.986 346.771C401.248 346.265 404.79 345.426 404.606 344.93C404.439 343.585 400.488 345.254 400.752 344.759C401.007 344.273 403.038 342.594 404.417 342.94C405.177 342.283 403.898 341.025 404.096 340.357C404.492 339.087 405.784 339.549 405.95 337.376C406.037 335.965 406.447 335.492 407.141 334.803C407.562 334.405 407.893 333.74 408.211 334.168C408.928 335.169 408.279 335.643 409.062 336.514C410.132 337.74 411.454 339.969 408.434 339.505C408.62 340.13 408.211 340.807 409.566 343.639C409.823 344.178 408.244 346.148 408.541 346.739C408.783 346.578 409.304 346.61 409.934 346.781L410.992 347.212L411.111 347.04C411.62 346.427 413.163 345.232 414.334 345.535C415.017 344.9 413.694 343.694 413.849 343.069C414.146 341.853 415.404 342.295 415.404 340.218C415.404 338.872 415.756 338.421 416.374 337.776C416.739 337.388 417.013 336.755 417.345 337.161C418.108 338.12 417.523 338.572 418.316 339.4C419.431 340.56 420.842 342.693 417.93 342.25C418.141 342.853 417.799 343.489 419.287 346.2C419.564 346.707 418.207 348.591 418.528 349.152C419.367 348.548 423.967 350.667 424.354 352.1L424.364 352.207L424.439 352.143C424.726 351.787 425.556 350.894 425.401 350.345C425.314 350.034 424.189 350.13 424.265 349.754C424.308 349.473 424.903 349.614 425.215 349.354C425.643 349.01 425.845 348.289 425.976 347.923C424.795 348.096 425.37 347.233 425.81 346.769C426.142 346.437 425.899 346.254 426.206 345.864C426.339 345.706 426.448 345.963 426.592 346.113C426.848 346.371 426.99 346.553 426.99 347.092C426.99 347.93 427.497 347.758 427.607 348.242C427.632 348.308 427.33 349.04 427.487 349.191C427.763 349.471 428.534 349.245 428.304 349.587C428.028 350.031 427.121 350.331 427.177 350.471C427.4 351.018 429.694 351.137 429.175 351.267C428.038 351.547 428.105 351.49 428.47 352.343C428.732 352.946 429.053 352.557 429.409 352.829C429.706 353.052 429.52 353.376 429.649 353.731C429.793 354.14 429.342 354.238 429.409 354.548C429.504 354.925 431.139 355.323 430.191 355.949C429.827 356.184 429.175 356.174 428.789 356.357C428.371 356.552 429.143 356.992 429.575 357.583C429.872 358.003 430.089 358.757 430.433 359.059C431.372 359.909 432.64 360.534 430.589 360.534C431.174 360.534 431.879 361.352 430.972 361.352C430.257 361.352 429.562 361.36 428.945 361.525C429.763 361.525 433.214 362.192 431.679 362.999C431.867 363.203 432.674 363.74 433.006 363.905C433.105 363.948 433.789 364.022 433.789 364.054C433.842 364.293 433.456 364.335 433.402 364.55C433.357 364.711 434.306 365.26 434.417 365.614C432.905 365.614 431.758 365.206 430.114 365.206C431.626 365.206 432.153 367.584 433.402 367.584L433.512 368.52L449.322 368.757C465.153 369.264 468.706 385.556 484.539 383.964C505.942 380.113 519.634 399.269 543.343 399.472C566.889 389.411 584.518 383.727 616.989 385.267L854.468 392.368L874.702 370.263C884.149 368.607 885.066 372.48 887.655 374.999L908.983 369.156L909.567 368.402C912.37 366.637 914.278 364.689 916.707 362.838C917.763 362.03 919.155 361.772 919.762 361.127C917.699 360.265 914.963 360.395 913.848 358.997C913.119 358.08 909.411 359.588 910.385 358.361C912.424 355.789 912.81 353.712 916.299 351.529C916.473 351.42 916.11 350.98 916.299 350.884C916.905 350.57 919.839 349.817 919.353 348.538C919.276 348.331 915.78 348.538 915.481 348.538C916.288 347.688 916.97 347.226 917.721 345.976C918.085 345.375 917.6 344.717 918.131 344.265C918.329 344.094 921.051 344.126 919.762 342.77H918.734C918.48 342.436 919.001 341.811 918.734 341.491C918.184 340.79 915.072 342.34 915.072 341.059C915.072 339.047 918.868 338.929 919.552 337.001C919.762 336.42 919.563 335.602 919.963 335.29C920.799 334.667 921.826 335.278 922.214 334.225C922.785 332.623 919.531 331.738 915.274 332.514C914.664 331.115 921.152 330.178 922.269 330.619C923.327 329.202 917.291 327.961 917.137 328.178C917.457 327.499 922.477 326.994 922.796 326.713C923.282 325.519 916.389 326.303 916.465 326.476C916.235 325 921.661 322.419 922.598 323.097C922.939 322.504 921.508 320.524 921.805 319.997C923.361 317.155 923.01 316.489 923.226 315.854C920.171 316.316 921.649 314.089 922.822 312.873C923.658 311.989 923.042 311.516 923.836 310.515C924.179 310.085 924.474 310.763 924.86 311.16C925.512 311.838 925.866 312.313 925.866 313.721C925.866 315.904 927.198 315.432 927.495 316.714C927.663 317.37 926.285 318.628 927.003 319.297C927.699 319.124 928.523 319.458 929.208 319.888L930.31 320.9L930.485 320.781C932.586 319.543 935.516 318.652 936.289 316.509C936.655 315.464 936.289 313.989 937.018 313.454C938.518 312.323 940.35 313.422 941.025 311.537C942.053 308.664 936.249 307.082 928.634 308.481C927.554 305.972 939.137 304.306 941.134 305.102C943.035 302.541 932.24 300.334 931.968 300.722C932.552 299.516 941.511 298.612 942.095 298.107C942.957 295.977 930.631 297.365 930.764 297.687C930.334 295.04 940.054 290.435 941.732 291.639C942.337 290.575 939.779 287.043 940.306 286.097C943.086 281.027 942.448 279.821 942.844 278.704C937.386 279.522 940.044 275.54 942.115 273.355C943.615 271.783 942.515 270.942 943.936 269.156C944.567 268.37 945.074 269.576 945.768 270.298C946.927 271.526 947.575 272.366 947.575 274.885C947.575 278.78 949.946 277.952 950.501 280.232C950.776 281.405 948.317 283.665 949.595 284.849C952.101 284.214 955.532 287.237 955.919 288.087C956.325 288.969 949.486 285.99 949.001 288.391C948.601 289.295 954.849 290.779 955.235 291.685C956.725 295.128 952.785 295.366 954.508 299.324C955.73 302.144 957.197 300.359 958.874 301.619C960.267 302.651 959.37 304.148 959.969 305.816C960.65 307.73 958.523 308.15 958.874 309.636C959.296 311.378 966.907 313.252 962.529 316.126C960.807 317.243 957.771 317.167 955.961 318.029C954.011 318.966 957.642 321.021 959.603 323.766C961.014 325.736 962.02 329.21 963.619 330.631C964.16 331.127 964.734 331.6 965.298 332.064H965.307L965.33 332.044C966.167 331.226 967.171 330.418 968.484 329.6C968.74 329.439 968.209 328.782 968.484 328.644C968.938 328.408 970.259 327.998 971.383 327.417L972.248 326.794L971.961 326.342C971.862 326.019 971.947 325.717 972.171 325.428L972.567 325.05L972.171 324.987C970.626 324.945 967.591 325.114 967.258 325.114C968.474 323.855 969.502 323.154 970.616 321.283C971.156 320.378 970.448 319.399 971.23 318.721C971.517 318.474 975.6 318.507 973.672 316.483H972.147C971.751 315.988 972.537 315.051 972.147 314.569C971.311 313.512 966.642 315.837 966.642 313.922C966.642 310.896 972.334 310.725 973.361 307.841C973.681 306.969 973.372 305.732 973.978 305.28C975.234 304.333 976.771 305.26 977.332 303.678C978.191 301.268 979.836 297.919 975.808 297.919C972.201 297.919 976.413 301.74 971.936 300.697C969.762 300.189 966.365 297.897 966.949 297.272C967.908 296.271 971.581 294.753 973.877 293.582C976.25 292.366 977.254 291.493 978.225 290.267C979.979 288.062 971.959 285.314 976.413 284.476C981.977 283.423 976.483 281.41 981.272 281.153C976.384 280.365 978.358 277.545 978.868 276.158C975.656 276.632 976.052 273.694 977.575 271.971C978.235 271.229 979.648 271.681 980.168 271.141C981.424 269.83 980.931 263.9 982.118 262.393C982.639 261.737 983.465 267.161 982.971 268.646C982.54 269.915 984.758 270.315 984.758 272.413C984.758 275.684 984.824 275.522 985.279 277.439C985.595 278.795 988.938 280.237 989.447 281.442C989.734 282.144 986.003 283.024 985.892 283.648C988.267 283.605 988.74 285.887 989.247 287.038C989.919 288.598 989.16 288.771 984.966 289.987C983.677 291.471 987.968 291.923 988.639 293.441C988.893 294.022 989.16 294.377 989.437 294.582L990.24 294.862L991.541 291.957C992.339 289.684 995.824 290.514 995.824 286.618C995.824 284.099 996.795 283.249 998.493 282.033C999.509 281.312 1000.26 280.106 1001.17 280.879C1003.26 282.678 1001.65 283.517 1003.84 285.088C1006.89 287.263 1010.79 291.256 1002.77 290.427L1006.09 298.099L1006.59 297.84L1006.56 297.711C1006.02 294.259 1008.49 290.198 1009.58 287.293C1009.97 286.27 1010.84 285.022 1012.02 283.796L1012.16 283.679L1011.14 283.732C1008.02 283.486 1010.28 280.202 1012.1 278.288C1013.6 276.727 1012.5 275.886 1013.92 274.089C1014.54 273.315 1015.06 274.521 1015.74 275.243C1016.91 276.459 1017.56 277.308 1017.56 279.814L1017.57 279.88L1021.09 278.523C1022.68 278.298 1024.18 278.577 1025.38 279.567C1025.68 279.824 1027.49 278.373 1027.81 278.199C1028.45 277.824 1029.12 277.372 1029.83 276.887L1031.41 275.767L1031.48 274.992C1031.57 274.616 1031.74 274.292 1032.03 274.067C1034.38 272.206 1037.54 274.013 1038.43 270.903C1039.21 268.179 1033.92 266.222 1033.36 263.874C1033.26 263.424 1033.5 262.929 1033.86 262.434L1033.98 262.294L1032.9 261.649C1033.38 268.364 1026.82 273.175 1026.07 263.025C1025.31 265.512 1025.21 268.406 1022.46 269.643C1021.69 269.998 1021.9 268.342 1021.08 267.987C1019.88 267.48 1020.76 272.658 1017.84 271.022C1016.06 270.031 1016.12 268.416 1016.71 266.867L1017.13 266.048L1016.96 266.145C1014.37 267.082 1015.96 259.387 1016.98 258.235C1018.3 256.728 1019.71 255.738 1021.14 254.844L1021.56 254.574L1022.24 253.153C1022.58 252.691 1023.06 252.357 1023.71 252.271L1025.08 252.217L1025.38 251.982C1026.07 251.411 1026.75 250.743 1027.43 249.948L1027.88 249.344L1027.79 248.279C1027.69 246.924 1027.95 246.386 1029.81 246.245L1030.21 246.235L1030.65 245.622L1030.1 244.965C1029.57 243.803 1030.46 242.846 1031.78 242.146L1033.13 241.65L1033.62 240.745C1034.53 238.765 1035 236.817 1034.44 235.246C1033.56 232.793 1024.99 233.515 1025.33 230.631C1025.57 228.456 1030.19 229.499 1032.48 227.553C1035.6 224.906 1036.66 219.308 1037.49 216.447C1028.52 217.814 1032.45 211.193 1035.64 207.577C1037.92 204.984 1036 203.595 1038.14 200.626C1039.08 199.325 1040.08 201.326 1041.3 202.521C1043.37 204.543 1044.57 205.943 1044.87 210.118C1045.34 216.588 1049.18 215.199 1050.35 218.988C1050.52 219.505 1048.68 225.144 1049.94 226.327C1052.25 228.458 1058.02 226.693 1056.5 229.404L1056.43 229.489L1057.94 229.748L1063.02 231.083L1063.54 230.037C1064.3 228.552 1065.04 227.153 1065.61 225.872C1068.85 218.64 1086.39 205.285 1094.38 212.3C1094.87 212.733 1098.23 210.192 1098.8 209.868C1099.99 209.223 1101.24 208.426 1102.53 207.576L1105.45 205.606L1105.68 204.239C1105.89 203.572 1106.22 203.011 1106.75 202.613C1111.13 199.343 1116.47 202.527 1118.44 197.049C1120.14 192.272 1111.1 188.816 1110.43 184.685C1110.3 183.909 1110.78 183.037 1111.48 182.166L1111.71 181.919L1109.88 180.787C1109.88 192.582 1097.71 201.031 1097.71 183.209C1096.04 187.578 1095.5 192.657 1090.52 194.842C1089.1 195.457 1089.7 192.551 1088.3 191.937C1086.23 191.031 1087.13 200.136 1082.21 197.262C1079.21 195.521 1079.51 192.689 1080.76 189.946L1081.6 188.514L1081.27 188.687C1076.61 190.334 1080.41 176.806 1082.33 174.781C1084.87 172.124 1087.47 170.391 1090.08 168.807L1090.85 168.357L1092.23 165.848C1092.91 165.04 1093.77 164.449 1094.94 164.299L1097.34 164.202L1097.91 163.791C1099.2 162.78 1100.49 161.617 1101.75 160.208L1102.65 159.154L1102.62 157.281C1102.63 154.893 1103.13 153.956 1106.42 153.709L1107.13 153.687L1107.98 152.61L1107.1 151.46C1106.32 149.414 1108.01 147.737 1110.43 146.497L1112.87 145.615L1113.82 144.032C1115.68 140.567 1116.77 137.134 1115.98 134.368C1114.76 130.064 1099.59 131.333 1100.56 126.253C1101.28 122.432 1109.24 124.273 1113.52 120.838C1119.33 116.19 1121.94 106.343 1123.75 101.316C1107.82 103.705 1115.56 92.0828 1121.63 85.7328C1125.99 81.1596 1122.78 78.7278 1126.94 73.498C1128.74 71.2156 1130.25 74.734 1132.24 76.8333C1135.63 80.3837 1137.55 82.8609 1137.55 90.19C1137.55 101.553 1144.47 99.1214 1146.05 105.772C1146.26 106.677 1142.29 116.598 1144.39 118.687C1148.15 122.431 1158.52 119.332 1155.5 124.09L1155.38 124.261L1158.02 124.691C1165.56 125.951 1175.66 128.082 1171.84 134.731C1176.51 136.765 1175.03 138.713 1171.84 141.513C1170.48 142.708 1167.12 134.43 1165.76 134.731C1165.03 134.894 1163.45 137.605 1161.89 138.122C1155.93 140.08 1158.02 132.934 1155.25 133.278C1152.67 133.602 1149.41 136.711 1146.4 134.731L1144.33 132.59L1143.62 132.988C1141.36 134.301 1139.78 135.312 1140.07 135.991C1143.19 143.535 1174.34 145.075 1167.23 146.808C1151.81 150.607 1152.72 149.885 1157.73 161.423C1161.29 169.645 1165.57 164.447 1170.47 168.107C1174.51 171.12 1171.92 175.49 1173.66 180.343C1175.15 184.53 1172.03 186.272 1170.82 188.705L1170.48 191.342L1173.68 189.824C1180.85 186.25 1183.97 183.679 1187.03 180.051C1192.55 173.53 1169.26 165.426 1182.55 162.939C1199.14 159.839 1183.21 153.9 1197.41 153.126C1183.07 150.802 1189.35 142.46 1191.04 138.35C1181.49 139.771 1183.1 131.075 1187.88 125.984C1189.93 123.799 1194.05 125.145 1195.67 123.531C1199.59 119.644 1199 102.123 1202.76 97.6905C1204.4 95.7541 1206.02 111.768 1204.32 116.158C1202.86 119.925 1209.33 121.077 1209.01 127.308C1208.52 136.971 1208.73 136.488 1209.79 142.139C1210.53 146.131 1220.2 150.404 1221.51 153.978C1222.27 156.043 1211.11 158.638 1210.7 160.5C1217.69 160.371 1218.75 167.089 1220.07 170.508C1221.83 175.124 1219.56 175.611 1206.99 179.237C1202.92 183.625 1215.57 184.94 1217.29 189.427C1219.96 196.401 1223.83 191.99 1227.83 195.099C1231.12 197.66 1228.73 201.375 1229.99 205.495C1231.45 210.241 1226.12 211.284 1226.81 214.954C1227.61 219.26 1246.24 223.908 1235.02 231.033C1230.62 233.81 1223.11 233.627 1218.52 235.769C1213.57 238.07 1222.3 243.152 1226.82 249.952C1230.07 254.847 1232.11 263.436 1235.87 266.966C1246.23 276.739 1260.49 283.993 1236.8 283.993C1243.52 283.993 1251.26 293.451 1240.83 293.451C1232.55 293.451 1224.47 293.473 1217.27 295.334C1226.78 295.334 1266.18 303.073 1247.98 312.359C1250.11 314.727 1258.93 321.043 1262.79 322.766C1263.9 323.262 1271.63 324.241 1271.71 324.651C1272.2 327.256 1267.66 327.727 1266.91 330.332C1266.37 332.173 1276.89 338.405 1278 342.623C1264.9 342.623 1254.3 339.966 1241.85 338.63L1235.97 338.31L1238.04 341.182L1239.66 342.183C1249.01 349.9 1254.34 365.324 1265.12 365.324C1264.08 366.357 1263.41 367.389 1263.02 368.412L1262.89 369.758L1277.81 369.778L1284.99 369.907L1284.73 478.971L-4.98291 478.974ZM422.138 366.983L422.758 366.498H422.721C422.489 366.51 422.303 366.563 422.204 366.682C422.147 366.758 422.127 366.852 422.138 366.96V366.983ZM421.841 363.057L421.975 362.862C422.273 362.43 422.647 362.022 423.316 361.602C423.385 361.558 423.242 361.399 423.316 361.355C423.549 361.238 424.674 360.947 424.488 360.462H422.998C423.316 360.129 423.571 359.955 423.87 359.473C424.001 359.244 423.816 358.987 424.024 358.816C424.09 358.75 425.14 358.762 424.644 358.245H424.256V357.954L424.033 357.932C420.734 357.612 418.428 358.418 418.905 359.761C419.26 360.764 420.241 360.183 421.045 360.784C421.428 361.065 421.23 361.849 421.428 362.41C421.517 362.635 421.641 362.84 421.804 363.021L421.841 363.057ZM934.296 361.033L934.44 360.966L934.032 360.922L934.296 361.033ZM409.395 358.675L409.406 358.472C409.319 357.891 408.481 357.597 408.81 356.705L408.824 356.651L408.469 356.822C408.15 357.113 408.039 357.467 408.15 357.875C408.293 358.404 408.634 358.512 409.042 358.566L409.395 358.675ZM423.63 356.779L424.565 356.026C424.646 355.81 424.565 355.487 424.72 355.37C425.04 355.133 425.437 355.37 425.58 354.972C425.712 354.617 425.039 354.357 424.993 354.056C424.95 353.819 425.633 353.487 425.193 353.487C424.498 353.487 424.476 353.358 423.826 353.734L423.615 353.863L423.628 353.875C423.682 353.917 423.715 353.95 423.737 353.992C423.727 353.981 423.694 353.972 423.648 353.972H423.45L422.924 354.317C422.813 354.392 422.746 354.37 422.713 354.305L422.703 354.09L422.337 354.167C420.649 354.54 418.158 355.393 418.85 356.329C419.446 356.092 421.663 356.263 423.386 356.705L423.63 356.779ZM408.337 354.273C408.624 354.167 409.24 354.144 409.991 354.186L410.1 354.199L410.641 354.169C411.041 354.135 411.391 353.996 411.722 353.242C411.832 352.983 411.897 352.746 411.931 352.543V352.09L410.584 352.434C409.154 352.894 407.861 353.563 408.337 354.273ZM422.847 353.552L422.924 353.324L424.223 352.315L424.113 352.293C422.924 352.044 417.933 351.603 418.343 352.604C418.576 352.797 421.322 353.123 422.813 353.541L422.847 353.552ZM411.568 351.097L411.182 350.289C411.151 350.14 411.14 349.968 411.161 349.784L411.17 349.73H411.15C409.495 349.666 407.895 349.762 408.095 350.365C408.234 350.504 409.561 350.697 410.873 350.946L411.568 351.097ZM413.027 348.343L413.147 348.301C413.986 347.977 414.759 347.656 414.658 347.419C414.462 346.462 412.364 347.117 411.413 347.302L411.25 347.322L411.989 347.634L413.027 348.343ZM968.321 344.609L970.76 343.232L968.708 342.695L965.905 341.326L961.251 341.423C959.66 341.521 958.129 341.714 956.694 342.09C958.611 342.09 963.587 342.864 967.198 344.114L968.321 344.609ZM86.5576 342.811L86.7138 342.596L88.2572 340.218L88.1699 340.229C85.6641 340.465 83.2591 340.94 80.9969 341.865C81.7476 341.865 82.8074 341.981 84.0552 342.209L86.5576 342.811ZM169.803 342.036L171.899 339.551L174.504 337.539L173.357 337.495C170.299 337.408 167.343 337.408 167.21 337.754C166.804 338.807 167.111 339.766 167.83 340.606L169.803 342.036ZM932.186 340.626L933.931 339.873C935.266 339.173 936.358 338.268 935.926 337.126C935.873 336.986 934.956 336.954 933.81 336.964H933.62L930.555 337.858C930.011 338.117 930.243 338.536 930.754 339.074L932.186 340.626ZM177.139 334.89L179.138 334.029C180.473 333.34 181.563 332.427 181.133 331.286C180.988 330.918 174.734 331.286 174.205 331.286C175.651 329.768 176.874 328.952 178.212 326.7C178.861 325.625 178.011 324.463 178.948 323.643C179.28 323.354 184.164 323.398 181.86 320.974H180.041C179.568 320.393 180.503 319.275 180.041 318.682C179.047 317.432 173.476 320.198 173.476 317.918C173.476 314.312 180.261 314.109 181.496 310.664C181.86 309.621 181.496 308.155 182.223 307.609C183.724 306.489 185.555 307.589 186.23 305.705C187.258 302.819 189.209 298.827 184.411 298.827C181.187 298.827 179.865 301.681 177.139 302.573L175.839 302.606L176.696 303.327C177.161 304.146 177.017 308.795 176.696 308.696C175.12 308.244 173.387 306.996 172.042 306.123C170.928 305.402 170.19 304.736 169.098 303.973L167.133 301.775L167.187 302.215C167.331 304.971 164.439 303.7 164.439 309.124C164.439 313.366 171.068 312.093 169.236 314.398C168.377 315.486 170.099 317.552 169.236 318.638C168.52 319.555 166.658 317.81 165.863 318.638C161.579 323.127 170.618 323.042 171.256 323.601C172.989 325.106 171.422 327.261 172.603 329.261C173.847 331.34 175.028 332.759 176.241 334.007L177.139 334.89ZM932.477 333.374L932.519 333.32C932.675 333.083 932.841 332.826 933.014 332.546C933.657 331.458 932.806 330.307 933.745 329.489C934.087 329.187 938.964 329.229 936.659 326.809H934.836C934.373 326.228 935.302 325.109 934.836 324.528C934.217 323.742 931.8 324.536 930.092 324.679H929.959L929.902 325.153C929.573 325.702 929.264 326.283 929.739 327.392C930.433 328.974 931.251 327.973 932.186 328.671C932.959 329.252 932.477 330.092 932.806 331.017C933.192 332.094 931.988 332.331 932.186 333.159L932.477 333.374ZM96.6982 332.675L96.8963 332.588C98.0552 331.985 99.0057 331.199 98.6295 330.2C98.6195 330.168 98.5204 330.134 98.3524 330.112L97.8116 330.07L96.6528 330.329C95.6468 330.458 94.446 330.524 93.0336 330.524C94.1034 330.524 95.232 331.115 96.2212 331.995L96.6982 332.675ZM99.0813 322.944L99.7531 322.459C99.8639 322.157 99.7531 321.77 99.2576 321.243C98.9805 320.952 98.4213 321.342 98.0098 321.362L97.9006 321.319L98.7723 322.483L99.0813 322.944ZM1005.27 322.847L1005.57 322.588C1005.88 322.244 1006.12 321.866 1006.27 321.438C1006.64 320.392 1006.27 318.919 1007 318.38C1007.56 317.961 1008.17 317.852 1008.75 317.777L1009.25 317.659L1009.31 317.152L1009.79 316.722L1008.12 316.388C1004.6 316.388 1003.55 317.389 1003.57 318.746L1005.27 322.847ZM928.671 322.405L928.913 322.041C929.042 321.878 929.185 321.727 929.353 321.587L929.983 321.136L928.789 320.877C927.83 320.682 926.802 320.607 926.669 321.277C926.56 321.535 927.378 321.868 928.248 322.202L928.671 322.405ZM97.6034 320.932L97.5597 320.793C97.6034 320.274 97.9779 319.641 97.6823 319.253C97.5715 319.113 97.4052 319.038 97.1852 318.994L96.9333 318.984L96.7888 319.868L97.1046 320.274L97.6034 320.932ZM119.769 319.663L123.333 312.978C126.275 308.845 131.287 305.564 131.109 303.55L131.035 303.325L130.118 303.11C129.103 302.819 128.692 304.25 128.396 304.616C127.493 305.758 126.168 306.597 124.91 307.512L122.647 309.922L122.903 310.234C122.99 310.763 122.691 311.333 121.742 311.957C120.254 312.925 117.606 312.873 116.04 313.613C114.343 314.419 117.497 316.208 119.205 318.585L119.769 319.663ZM97.4808 314.023L98.3423 313.291C98.606 312.99 98.8176 312.656 98.9486 312.29C99.1048 311.838 99.1048 311.289 99.1502 310.795L99.2241 310.345L98.4868 310.58C98.2097 310.805 97.9913 311.183 97.8351 311.741L97.4808 314.023ZM87.9918 310.029L88.2454 307.964C88.3025 306.984 88.279 305.994 88.0926 304.983C87.7298 303.065 85.2594 305.293 84.4314 305.693C84.0115 305.908 83.6253 306.026 83.2709 306.069L82.6999 306.037L83.9779 307.136C85.1368 308.049 86.3846 308.899 87.5653 309.729L87.9918 310.029ZM103.01 308.039L103.067 307.974C103.958 305.466 105.645 302 101.476 302C98.6833 302 97.5244 304.475 95.1614 305.263L94.3469 305.402L94.9885 306.049C95.9357 307.157 100.999 305.132 102.921 307.801L103.01 308.039ZM1027.5 306.049L1027.68 305.715C1028.63 303.928 1027.07 302.001 1028.53 300.656C1029.06 300.161 1037.16 300.238 1033.03 296.224C1032.27 295.48 1030.73 297.03 1030.02 296.224C1029.8 295.976 1029.73 295.683 1029.73 295.351L1029.74 295.253L1029.11 295.415C1028.67 295.576 1028.15 295.791 1027.54 296.115L1025.51 298.161L1025.49 298.698C1025.08 300.409 1023.2 301.281 1024.49 304.25C1025.1 305.661 1025.77 305.92 1026.5 305.983L1027.5 306.049ZM173.312 299.062L173.842 298.062C174.998 296.846 175.796 295.285 176.578 293.661L177.846 291.454L173.444 288.549C172.044 287.504 170.611 286.525 168.853 285.924C165.279 284.728 164.709 289.669 163.46 286.567C162.862 285.093 162.022 280.81 160.766 279.702C159.597 278.667 157.389 281.736 155.617 282.092L154.93 282.07L155.185 283.198L155.682 284.772L156.112 285.492C157.667 288.473 159.908 286.277 162.975 287.431C165.677 288.453 169.966 293.156 169.098 295.816C168.864 296.547 170.297 297.203 171.852 298.075L173.312 299.062ZM1074.01 296.533L1074.95 295.759L1077.1 295.285L1077.22 295.168C1078.52 293.93 1079.95 292.692 1081.53 291.454L1082.11 291.036L1077.23 293.253C1076.35 293.749 1075.57 294.415 1074.86 295.168L1073.86 296.286L1074.01 296.533ZM1072.51 271.341L1073.16 270.932C1074.01 270.265 1074.82 269.479 1075.57 268.53C1077.23 266.4 1078.74 262.375 1081.1 260.773C1083.72 258.986 1088.31 260.299 1092.09 260.343L1093.93 260.05L1095.07 258.265C1096.94 255.121 1094.46 251.732 1097.2 249.352C1098.19 248.482 1112.41 248.622 1105.68 241.571C1104.43 240.258 1101.51 242.992 1100.38 241.571C1100.03 241.141 1099.95 240.614 1099.99 240.043L1100.02 239.872L1098.88 240.162C1098.1 240.433 1097.16 240.819 1096.04 241.378C1091.68 243.561 1090.7 248.719 1086.09 249.621C1078.26 251.151 1085.13 247.997 1078.88 245.253C1073.06 242.702 1067.77 243.326 1061.19 244.282L1059.09 244.767L1059.52 246.705C1057.73 246.188 1057.16 245.446 1058.78 244.831L1059.09 244.767L1058.96 244.174L1058.97 243.776L1057.23 244.819C1056.68 245.809 1057.64 247.349 1059.31 250.632C1061.67 255.301 1063.89 252.353 1066.83 254.429C1069.26 256.152 1067.97 258.638 1069.15 261.392C1070.52 264.566 1067.03 265.267 1067.8 267.731C1067.99 268.355 1068.76 269 1069.78 269.669L1072.51 271.341ZM1059.24 240.658L1059.47 239.474L1060.24 237.388L1058.92 237.398C1057.7 236.729 1057.9 234.479 1056.73 234.62C1055.27 234.815 1053.55 236.58 1051.76 235.45L1050.5 234.234L1050.11 234.46C1048.86 235.201 1048.02 235.784 1048.2 236.17C1049.26 238.311 1054.23 239.605 1058.43 240.485L1059.24 240.658ZM1170.34 230.144L1170.78 227.731C1170.96 226.334 1171.25 225.084 1172.18 224.407C1173.15 223.719 1174.14 223.363 1175.12 223.159L1177.52 222.823L1176.82 221.985C1175.01 220.059 1171.64 213.16 1170.73 217.142C1170.23 219.381 1166.91 219.737 1162.48 219.564L1160.78 219.47L1161.32 220.34C1162.43 221.9 1164.35 223.729 1166.44 225.795L1170.34 230.144ZM1185.87 209.717L1186.08 208.501C1186.14 207.661 1186.08 206.877 1185.86 206.177L1184.91 204.65L1185.03 204.959C1185.1 205.745 1184.89 206.553 1184.35 207.393L1183.96 207.844L1184.01 207.93L1185.87 209.717Z" fill="#182E2F"/>
</g>
<mask id="mask7_9_10" style="mask-type:luminance" maskUnits="userSpaceOnUse" x="0" y="35" width="1280" height="380">
<path d="M1280 35H0V414.661H1280V35Z" fill="white"/>
</mask>
<g mask="url(#mask7_9_10)">
<path opacity="0.41" d="M953.522 79.1962C963.017 79.1962 970.715 71.4988 970.715 62.0036C970.715 52.5084 963.017 44.811 953.522 44.811C944.027 44.811 936.329 52.5084 936.329 62.0036C936.329 71.4988 944.027 79.1962 953.522 79.1962Z" fill="#46AAB0"/>
</g>
<mask id="mask8_9_10" style="mask-type:luminance" maskUnits="userSpaceOnUse" x="0" y="35" width="1280" height="380">
<path d="M1280 35H0V414.661H1280V35Z" fill="white"/>
</mask>
<g mask="url(#mask8_9_10)">
<path fill-rule="evenodd" clip-rule="evenodd" d="M1028.61 64.6813C1011.66 36.4765 980.872 60.7145 971.452 76.4107C965.923 67.2207 956.995 66.6312 946.393 66.6312C936.828 66.6312 940.409 81.8436 929.947 78.3688C906.435 70.5392 895.34 80.9687 874.352 80.9687C855.106 80.9687 834.687 81.627 814.842 81.627C789.746 81.627 850.564 86.1464 860.262 87.4916C908.281 94.149 964.674 88.7915 1014.52 88.7915C1035.82 88.7915 1056.07 88.1416 1077.16 88.1416C1080.27 88.1416 1096.81 89.2484 1097.52 87.4916C1103.31 72.9979 1071.67 80.9686 1069.33 80.3187C1069.19 80.2817 1045.05 56.3125 1045.05 67.9377C1045.05 63.9037 1034.83 69.8591 1028.61 64.6813Z" fill="#76BFFF"/>
</g>
<defs>
<filter id="filter0_i_9_10" x="524" y="-2" width="268.663" height="254.384" filterUnits="userSpaceOnUse" color-interpolation-filters="sRGB">
<feFlood flood-opacity="0" result="BackgroundImageFix"/>
<feBlend mode="normal" in="SourceGraphic" in2="BackgroundImageFix" result="shape"/>
<feColorMatrix in="SourceAlpha" type="matrix" values="0 0 0 0 0 0 0 0 0 0 0 0 0 0 0 0 0 0 127 0" result="hardAlpha"/>
<feOffset dx="94" dy="-51"/>
<feGaussianBlur stdDeviation="13"/>
<feComposite in2="hardAlpha" operator="arithmetic" k2="-1" k3="1"/>
<feColorMatrix type="matrix" values="0 0 0 0 1 0 0 0 0 0.609709 0 0 0 0 0.383752 0 0 0 0.25 0"/>
<feBlend mode="normal" in2="shape" result="effect1_innerShadow_9_10"/>
</filter>
<linearGradient id="paint0_linear_9_10" x1="796.833" y1="407.495" x2="720.046" y2="203.129" gradientUnits="userSpaceOnUse">
<stop stop-color="white"/>
<stop offset="1" stop-color="#FDF9E2"/>
</linearGradient>
</defs>
</svg>
